<svg width="195" height="728" viewBox="0 0 195 728" fill="none" xmlns="http://www.w3.org/2000/svg">
<g clip-path="url(#clip0_526_15106)">
<path d="M0 0H195V728H0V0Z" fill="#00468A"/>
<path d="M518.892 835.087C326.848 776.526 -28.8279 766.406 71.3683 615.906C171.564 465.405 534.412 373.15 518.892 835.087Z" fill="#539CD6" fill-opacity="0.5"/>
<path d="M-89.7002 551.209C-122.308 266.188 -33.3504 233.096 51.7627 259.353C136.876 285.61 53.1989 577.612 -89.7002 551.209Z" fill="#94C8F1" fill-opacity="0.12"/>
<path d="M242.245 440.389C219.087 446.169 150.847 405.509 149.278 347.781C147.71 290.052 203.526 300.403 220.127 304.144" stroke="#94C8F1" stroke-opacity="0.5"/>
<path d="M-19 34.4765C4.51915 26.8026 69.5921 112.805 66.9201 221.706C64.2481 330.608 9.34249 303.389 -6.93993 294.047" stroke="#94C8F1" stroke-opacity="0.5"/>
</g>
<defs>
<clipPath id="clip0_526_15106">
<rect width="195" height="728" fill="white"/>
</clipPath>
</defs>
</svg>
