<svg width="56" height="56" viewBox="0 0 56 56" fill="none" xmlns="http://www.w3.org/2000/svg">
<rect width="56" height="56" rx="8" fill="#FFF8F8"/>
<path d="M31.55 26.9C32.2 24.1666 29.8167 21.7832 27.0833 22.4332C25.8 22.7499 24.75 23.7999 24.4333 25.0833C23.7833 27.8166 26.1666 30.1999 28.9 29.5499C30.2 29.2332 31.25 28.1833 31.55 26.9Z" stroke="#D74F58" stroke-width="2.5" stroke-linecap="round" stroke-linejoin="round"/>
<path d="M38.0167 36.65C40.8667 33.9834 42.65 30.2 42.65 25.9833C42.65 17.8833 36.0833 11.3334 28 11.3334C19.9167 11.3334 13.35 17.9 13.35 25.9833C13.35 30.2167 15.15 34.0333 18.0333 36.7" stroke="#D74F58" stroke-width="2.5" stroke-linecap="round" stroke-linejoin="round"/>
<path d="M21.3333 32.2499C19.8 30.6166 18.85 28.4166 18.85 25.9832C18.85 20.9332 22.95 16.8333 28 16.8333C33.05 16.8333 37.15 20.9332 37.15 25.9832C37.15 28.4166 36.2 30.5999 34.6667 32.2499" stroke="#D74F58" stroke-width="2.5" stroke-linecap="round" stroke-linejoin="round"/>
<path d="M25.1667 35.7666L22.7667 38.75C20.8667 41.1333 22.55 44.6499 25.6 44.6499H30.3833C33.4333 44.6499 35.1333 41.1166 33.2167 38.75L30.8167 35.7666C29.3833 33.9499 26.6167 33.9499 25.1667 35.7666Z" stroke="#D74F58" stroke-width="2.5" stroke-linecap="round" stroke-linejoin="round"/>
</svg>
