<svg width="125" height="158" viewBox="0 0 125 158" fill="none" xmlns="http://www.w3.org/2000/svg">
<path d="M44.0552 78.6921C44.0552 78.6921 41.76 89.5741 40.4998 95.3132C39.2397 101.052 40.725 131.608 40.4998 139.187L40.2747 146.766L49.0721 146.078C49.0721 146.078 52.3746 121.083 53.0224 111.672C53.6703 102.26 54.8633 80.8105 54.8633 80.8105L44.0552 78.6921Z" fill="#FFB0A0"/>
<path d="M43.0806 83.3064L44.0563 78.6921L54.8605 80.8105C54.8605 80.8105 54.343 90.0431 53.8057 99.0531C52.0557 92.38 49.0535 86.331 43.0806 83.3064Z" fill="#F9A395"/>
<path d="M118.47 74.5267C118.47 74.5267 125.841 93.0753 124.126 97.8764C122.412 102.678 113.152 102.157 111.612 99.5695C110.071 96.9822 105.094 76.3947 105.094 76.3947L118.47 74.5267Z" fill="#F9A395"/>
<path d="M120.84 81.0209C119.58 77.3208 118.47 74.5267 118.47 74.5267L105.094 76.3947C105.094 76.3947 107.262 85.3809 109.182 92.2248C111.853 87.2926 115.527 83.1512 120.84 81.0209Z" fill="#EF9289"/>
<path d="M52.8442 51.46C52.8442 51.46 43.478 71.7891 40.5073 79.0901C53.4526 87.3211 57.6518 86.6693 57.6518 86.6693C57.6518 86.6693 53.9819 58.3993 52.8442 51.46Z" fill="#D74F58"/>
<path d="M50.8625 128.71L48.113 154.011L73.5374 155.851L76.0657 142.279L77.4917 157.461L111.267 155.426L106.487 123.575L50.8625 128.71Z" fill="#B33941"/>
<path d="M93.0743 44.0275L104.187 48.9041L111.266 52.2307C111.266 52.2307 111.266 69.591 108.69 83.2789C106.114 96.9668 107.165 123.882 109.381 131.242C89.8824 140.212 55.8187 133.77 49.186 131.242C53.9896 101.8 53.5314 84.0976 53.5314 72.9374C53.5314 61.7773 52.844 51.4756 52.844 51.4756C52.844 51.4756 69.7357 45.3112 76.1945 44.3216C82.6533 43.332 93.0743 44.0275 93.0743 44.0275Z" fill="#D74F58"/>
<path d="M60.039 133.817C60.039 133.817 65.7867 123.881 61.4097 99.6095C58.0598 81.037 57.653 57.6913 57.653 57.6913C56.1044 58.1285 54.6547 59.4281 53.3076 61.3915C53.4261 64.8055 53.5209 68.8117 53.5209 72.9371C53.5209 84.0973 53.9792 101.799 49.1755 131.242C51.0164 131.937 54.9272 132.931 60.039 133.817Z" fill="#B33941"/>
<path d="M93.0757 44.0272C93.0757 44.0272 95.2088 47.9539 90.978 54.1183C86.7472 60.2826 82.1095 61.3755 80.2292 61.8087C78.3488 62.242 71.0565 49.3291 76.1959 44.3213C81.513 42.8468 93.0757 44.0272 93.0757 44.0272Z" fill="#B33941"/>
<path d="M107.551 92.9685C102.262 90.7707 71.2596 77.9413 68.21 78.0406C64.8719 78.1479 60.9137 87.2493 65.0299 89.5227C69.1462 91.7961 78.5757 89.4909 85.9667 93.8946C89.7038 96.1282 92.1885 97.7736 96.8618 99.9277C100.334 101.517 103.641 102.805 107.208 102.924C107.224 99.5223 107.338 96.1401 107.551 92.9685Z" fill="#B33941"/>
<path d="M54.1745 53.3433C54.1745 53.3433 56.3274 80.6753 53.021 97.7693C53.5424 80.6912 54.1745 53.3433 54.1745 53.3433Z" fill="#B33941"/>
<path d="M81.4452 58.1126C78.9407 57.8344 74.4808 49.818 76.1952 44.3174C76.6894 43.825 77.0157 43.1877 77.1275 42.4971C77.2974 40.5099 77.1828 34.433 77.1828 34.433L91.6331 34.7629C91.6331 34.7629 91.1354 40.017 91.9413 42.1871C92.2157 42.8604 92.5988 43.4835 93.075 44.0312C93.075 50.6168 83.1518 58.3033 81.4452 58.1126Z" fill="#F7A192"/>
<path d="M85.5909 43.634C81.6011 44.0592 78.3341 41.1499 77.2201 37.2113C77.2201 35.1088 77.1846 34.4292 77.1846 34.4292L91.6349 34.7591C91.6349 34.7591 91.4848 36.2256 91.4848 38.5546C90.2325 40.7724 88.3482 43.2961 85.5909 43.634Z" fill="#EF978B"/>
<path d="M95.4038 23.2255C95.4038 23.2255 96.0596 20.6739 98.2441 21.596C100.429 22.5181 99.3384 27.2278 98.2441 28.6784C97.1499 30.1291 95.7751 30.3517 95.4038 29.5806C95.0325 28.8096 94.9653 24.7278 95.4038 23.2255Z" fill="#FFB0A0"/>
<path d="M74.1769 23.2255C74.1769 23.2255 73.5211 20.6739 71.3366 21.596C69.152 22.5181 70.2423 27.2278 71.3366 28.6784C72.4308 30.1291 73.8055 30.3517 74.1769 29.5806C74.5482 28.8096 74.6153 24.7278 74.1769 23.2255Z" fill="#F7A192"/>
<path d="M97.5802 27.9071C97.738 27.5992 97.9588 27.3283 98.2281 27.1122C98.7455 26.6472 98.9115 25.1767 98.9312 24.3302C98.9265 23.617 98.6427 22.9344 98.1412 22.4304C97.8449 22.2078 96.6242 23.6028 96.5294 24.0202C96.4346 24.4375 96.087 25.1568 96.5294 25.8086C96.9718 26.4604 96.7901 26.683 96.4386 26.9255C96.087 27.1679 96.3437 27.5773 96.5294 27.7799C96.7151 27.9826 96.9797 27.613 97.2918 27.1878C97.6039 26.7625 97.039 25.7093 96.8968 25.5463C96.7546 25.3834 97.8172 24.9899 98.1886 26.3651C98.2241 25.6417 97.5407 24.3778 96.6716 25.1727C96.9481 23.8493 97.434 23.261 97.7935 22.9868C98.153 22.7126 98.3979 23.5949 98.5322 24.4653C98.6665 25.3357 98.5836 26.4525 98.236 26.7347C97.9147 27.0576 97.6878 27.4632 97.5802 27.9071Z" fill="#F99585"/>
<path d="M72.1147 27.9071C71.955 27.6004 71.7345 27.3298 71.4668 27.1122C70.9493 26.6472 70.7834 25.1767 70.7637 24.3302C70.7666 23.6166 71.0508 22.9334 71.5537 22.4304C71.85 22.2078 73.0707 23.6028 73.1655 24.0202C73.2603 24.4375 73.6079 25.1568 73.1655 25.8086C72.723 26.4604 72.9048 26.683 73.2563 26.9255C73.6079 27.1679 73.3511 27.5773 73.1655 27.7799C72.9798 27.9826 72.7151 27.613 72.4031 27.1878C72.091 26.7625 72.6559 25.7093 72.7981 25.5463C72.9403 25.3834 71.8777 24.9899 71.5063 26.3651C71.4708 25.6417 72.1542 24.3778 73.0233 25.1727C72.7467 23.8493 72.2569 23.261 71.9014 22.9868C71.5458 22.7126 71.297 23.5949 71.1587 24.4653C71.0204 25.3357 71.1113 26.4525 71.455 26.7347C71.7787 27.0564 72.0071 27.4623 72.1147 27.9071Z" fill="#EF786C"/>
<path d="M86.3954 6.81519C86.3954 6.81519 93.6798 7.21263 95.256 12.5622C96.8322 17.9118 95.4891 22.8957 95.7498 25.2167C96.0105 27.5378 95.2758 31.3612 94.0986 33.9128C92.9214 36.4643 89.5438 39.5207 85.5184 40.1804C81.493 40.8402 77.1239 37.1996 75.7848 34.9103C74.4456 32.6211 73.8096 28.6347 73.7425 25.0578C73.6753 21.4808 73.2763 20.1295 73.7425 15.4953C74.2086 10.8611 77.7639 6.64031 86.3954 6.81519Z" fill="#FFB0A0"/>
<path d="M77.8133 35.2047C76.4741 32.9194 75.8381 28.9291 75.7749 25.3521C75.7117 21.7751 75.684 21.2187 76.8652 18.3492C78.627 14.0687 79.7884 7.0062 88.2975 7.10954C87.6723 6.96392 87.0371 6.86561 86.3973 6.81543C77.7659 6.64056 74.2105 10.8614 73.7563 15.4956C73.302 20.1297 73.697 21.4572 73.7563 25.058C73.8155 28.6588 74.4555 32.6094 75.7986 34.9106C77.0311 37.0131 80.8234 40.2562 84.5525 40.2562C81.5424 39.4096 78.8206 36.9256 77.8133 35.2047Z" fill="#F7A192"/>
<path d="M94.9749 23.36C94.9749 23.36 94.8722 19.9778 93.7898 18.8649C92.7075 17.7521 93.1696 18.0939 91.945 17.0526C90.993 16.2577 89.2153 16.6552 87.8604 16.993C86.5054 17.3308 84.9687 19.9023 82.1205 18.8888C81.1567 18.7338 76.6098 16.5041 77.1273 17.2195C77.6448 17.9349 75.9422 19.318 75.1008 21.1423C74.2594 22.9665 74.3107 26.5077 74.3107 26.5077C74.3107 26.5077 73.7656 19.6717 74.0026 17.1122C74.1708 15.2723 74.4585 13.4455 74.8638 11.6434C74.9388 11.4964 90.3965 10.1927 92.2452 10.1927C94.094 10.1927 95.7215 11.9216 95.4766 12.2396C95.2317 12.5575 94.9749 23.36 94.9749 23.36Z" fill="#F7A192"/>
<path d="M93.727 12.7169C93.727 12.7169 92.7473 15.9441 93.8178 18.0028C94.8884 20.0616 95.1412 26.6591 95.0977 28.5867C95.2641 28.638 95.4404 28.6475 95.6113 28.6145C95.6113 28.6145 95.3742 21.6235 98.2422 21.5957C98.7676 18.4798 100.506 14.5809 98.4437 10.5389C96.1169 5.96831 88.872 3.53596 84.7794 3.57968C80.6869 3.6234 77.7241 6.75922 73.521 8.93322C68.1327 11.7153 71.4431 20.0854 72.0909 21.401C72.5768 21.4805 73.122 21.7984 73.521 23.3604C73.92 24.9223 73.9595 28.6145 73.9595 28.6145H74.6745C74.6745 28.6145 74.4217 25.0773 74.4809 22.9311C74.5402 20.7849 76.1005 18.8534 75.9228 17.0172C75.745 15.181 75.5633 13.2097 75.5633 13.2097C78.1468 14.7915 89.8082 15.3599 93.727 12.7169Z" fill="#07003D"/>
<path d="M76.3784 13.8298C76.3784 13.8298 74.6521 11.4968 74.7509 8.93726C74.4546 9.85932 74.9563 12.8521 76.0821 14.1278C76.4377 14.0285 76.3784 13.8298 76.3784 13.8298Z" fill="#F7A192"/>
<path d="M81.7937 20.626C81.6012 20.356 81.3445 20.1388 81.0471 19.9944C80.7496 19.85 80.4209 19.7829 80.0911 19.7993C78.8665 19.7993 76.6464 20.1411 75.6825 21.5918C75.6114 21.9892 77.0335 21.3493 78.4477 21.3136C79.862 21.2778 81.0392 21.4805 81.5764 21.405C82.1137 21.3294 81.7937 20.626 81.7937 20.626Z" fill="#060030"/>
<path d="M87.2733 20.5186C87.4662 20.2493 87.7231 20.033 88.0205 19.8893C88.3179 19.7455 88.6464 19.6791 88.9759 19.6959C90.2005 19.6959 92.4206 20.0338 93.3844 21.4884C93.4556 21.8858 92.0295 21.2459 90.6192 21.2062C89.2089 21.1665 88.0278 21.3771 87.4905 21.3016C86.9533 21.2261 87.2733 20.5186 87.2733 20.5186Z" fill="#060030"/>
<path d="M82.2532 21.5201C82.7035 21.903 83.0809 22.3649 83.3672 22.8834C83.5118 23.1548 83.5878 23.4578 83.5884 23.7657C83.5781 24.0642 83.5477 24.3616 83.4975 24.656C83.272 25.8129 82.9658 26.9524 82.5811 28.066L82.4349 28.4635C82.3916 28.5801 82.3794 28.7062 82.3994 28.8291C82.4552 29.0935 82.5936 29.333 82.7944 29.5127C83.2069 29.8957 83.708 30.1689 84.2521 30.3076C84.5187 30.3919 84.7997 30.4204 85.0777 30.391C85.3586 30.3449 85.6273 30.2422 85.8678 30.089C86.3582 29.7785 86.7924 29.386 87.1516 28.9285C86.8314 29.427 86.4214 29.861 85.9428 30.2082C85.6938 30.382 85.4133 30.5049 85.1172 30.5699C84.8156 30.6162 84.5077 30.5999 84.2126 30.5222C83.6218 30.387 83.0769 30.0978 82.6324 29.6836C82.3961 29.4639 82.2321 29.1769 82.1623 28.8609C82.1377 28.6944 82.1512 28.5245 82.2018 28.3641C82.2532 28.2091 82.3046 28.0859 82.3559 27.9468C82.746 26.8488 83.0666 25.7271 83.3158 24.5884C83.377 24.3067 83.4192 24.0213 83.4423 23.7339C83.4478 23.4593 83.3896 23.1871 83.2724 22.939C83.0128 22.4127 82.6684 21.9333 82.2532 21.5201Z" fill="#EA8075"/>
<path d="M87.0416 35.7249C86.253 36.0365 85.4119 36.1917 84.5647 36.1819C83.7691 36.1877 82.9805 36.0323 82.2458 35.7249C82.9846 36.6509 85.7064 37.5332 87.0416 35.7249Z" fill="#F7A192"/>
<path d="M88.0331 31.6709C88.0331 31.6709 83.3125 32.283 80.7329 31.6709C81.9457 34.3139 86.0896 36.6111 88.0331 31.6709Z" fill="#752727"/>
<path d="M80.8057 31.6865C83.1166 32.2072 87.0512 31.7859 87.8728 31.6865C87.661 31.9626 87.3722 32.1687 87.0433 32.2787C85.4766 32.5402 83.882 32.587 82.3028 32.4178C81.7391 32.3407 81.2146 32.0845 80.8057 31.6865Z" fill="white"/>
<path d="M84.5714 32.9507C84.9731 32.8855 85.3844 32.9155 85.7726 33.0383C86.1607 33.1611 86.515 33.3734 86.8073 33.6582C85.2746 35.2002 83.2876 34.5961 81.9326 33.3164C82.9716 32.6765 83.2994 33.2011 84.5714 32.9507Z" fill="#B23030"/>
<path d="M81.323 24.402C81.073 24.0552 80.7397 23.7779 80.3542 23.5958C79.9687 23.4137 79.5437 23.3328 79.1187 23.3607C77.6571 23.4601 77.3608 24.5769 77.3608 24.5769C77.964 24.7359 78.5826 24.8278 79.2057 24.8511C79.9399 24.9127 80.676 24.7565 81.323 24.402Z" fill="white"/>
<mask id="mask0_796_22643" style="mask-type:luminance" maskUnits="userSpaceOnUse" x="76" y="23" width="6" height="2">
<path d="M81.4452 24.2625C81.1398 23.9619 80.7745 23.7299 80.3734 23.5819C79.9723 23.4339 79.5446 23.3733 79.1184 23.404C78.6777 23.4426 78.2497 23.5727 77.8614 23.7861C77.4732 23.9996 77.1331 24.2917 76.8628 24.644C76.8628 24.644 77.9294 24.7633 79.2053 24.8507C79.9944 24.8916 80.7767 24.6862 81.4452 24.2625Z" fill="white"/>
</mask>
<g mask="url(#mask0_796_22643)">
<path d="M78.4312 23.7689C78.3912 23.9396 78.4025 24.1183 78.4635 24.2825C78.5246 24.4468 78.6327 24.5891 78.7741 24.6915C78.9156 24.7939 79.084 24.8518 79.2582 24.8578C79.4323 24.8639 79.6044 24.8178 79.7525 24.7255C79.9007 24.6332 80.0183 24.4988 80.0904 24.3392C80.1626 24.1796 80.1861 24.0021 80.158 23.8291C80.1299 23.656 80.0514 23.4953 79.9325 23.3671C79.8135 23.239 79.6595 23.1492 79.4898 23.1092C79.2626 23.0566 79.0239 23.0964 78.8256 23.22C78.6274 23.3435 78.4856 23.5408 78.4312 23.7689Z" fill="#0E004D"/>
<path d="M78.8795 23.8762C78.8604 23.9582 78.8661 24.044 78.8956 24.1228C78.9251 24.2016 78.9772 24.2698 79.0452 24.3188C79.1133 24.3677 79.1943 24.3953 79.278 24.3979C79.3616 24.4005 79.4442 24.3781 79.5151 24.3334C79.5861 24.2888 79.6423 24.224 79.6766 24.1472C79.7109 24.0704 79.7218 23.9851 79.7079 23.9021C79.694 23.819 79.6559 23.742 79.5984 23.6808C79.5409 23.6196 79.4667 23.5769 79.3851 23.5582C79.3311 23.5453 79.2752 23.5433 79.2204 23.5523C79.1657 23.5613 79.1132 23.5812 79.0662 23.6108C79.0192 23.6404 78.9784 23.6791 78.9464 23.7246C78.9143 23.7702 78.8916 23.8217 78.8795 23.8762Z" fill="#00142D"/>
<path d="M78.7485 23.932C78.7397 23.9568 78.7363 23.9832 78.7384 24.0094C78.7405 24.0357 78.7481 24.0612 78.7607 24.0842C78.7733 24.1073 78.7905 24.1275 78.8114 24.1434C78.8323 24.1592 78.8562 24.1705 78.8817 24.1764C78.9072 24.1823 78.9337 24.1828 78.9593 24.1777C78.985 24.1726 79.0093 24.1621 79.0307 24.1469C79.052 24.1317 79.0699 24.1122 79.0833 24.0895C79.0966 24.0669 79.105 24.0416 79.1079 24.0155C79.1131 23.9699 79.1014 23.924 79.0751 23.8866C79.0487 23.8491 79.0096 23.8227 78.9652 23.8124C78.9208 23.8021 78.8741 23.8086 78.8342 23.8306C78.7942 23.8527 78.7637 23.8888 78.7485 23.932Z" fill="white"/>
</g>
<path d="M81.3245 24.4018C81.0969 23.9992 80.7537 23.6753 80.3399 23.4724C79.9261 23.2696 79.461 23.1973 79.0057 23.2651C78.6129 23.2948 78.2379 23.442 77.9289 23.6877C77.6198 23.9335 77.3909 24.2666 77.2715 24.6442C77.4681 24.343 77.7289 24.0897 78.0351 23.9027C78.3412 23.7157 78.6849 23.5997 79.0412 23.5632C79.4612 23.4998 79.8902 23.5434 80.2891 23.6899C80.6879 23.8364 81.0439 24.0811 81.3245 24.4018Z" fill="#07003D"/>
<path d="M81.3236 23.8572C81.0778 23.4975 80.7372 23.214 80.3399 23.0385C79.9376 22.8619 79.4966 22.7934 79.06 22.8398C78.625 22.8786 78.204 23.0143 77.8275 23.2372C77.4506 23.4517 77.1371 23.763 76.9189 24.1394C77.1788 23.8086 77.5046 23.5362 77.8754 23.3398C78.2462 23.1433 78.6538 23.0272 79.0719 22.9987C79.4865 22.9521 79.9062 23.0052 80.2965 23.1537C80.6885 23.3049 81.0401 23.5457 81.3236 23.8572Z" fill="#AD625A"/>
<path d="M81.4455 24.4019C81.4455 24.4019 81.323 25.3915 80.0392 25.8247C79.5943 25.9917 79.1143 26.0407 78.6452 25.9669C78.1761 25.8931 77.7338 25.6991 77.3608 25.4034C77.8428 26.087 78.941 26.4964 80.2485 26.0632C80.6075 25.9669 80.9225 25.7491 81.1405 25.4465C81.3585 25.1439 81.4662 24.775 81.4455 24.4019Z" fill="#F7A192"/>
<path d="M87.9009 24.4015C88.1515 24.0553 88.4849 23.7783 88.8702 23.5963C89.2555 23.4142 89.6803 23.3331 90.1052 23.3602C91.5668 23.4596 91.8631 24.5764 91.8631 24.5764C91.2614 24.7357 90.644 24.8277 90.0222 24.8506C89.2867 24.9125 88.5493 24.7564 87.9009 24.4015Z" fill="white"/>
<mask id="mask1_796_22643" style="mask-type:luminance" maskUnits="userSpaceOnUse" x="87" y="23" width="6" height="2">
<path d="M87.7798 24.2623C88.0854 23.962 88.4508 23.7303 88.8518 23.5824C89.2528 23.4344 89.6805 23.3735 90.1065 23.4038C90.5478 23.4428 90.9762 23.573 91.365 23.7864C91.7539 23.9998 92.0947 24.2917 92.3661 24.6438C92.3661 24.6438 91.2995 24.763 90.0236 24.8505C89.2333 24.8917 88.4496 24.6863 87.7798 24.2623Z" fill="white"/>
</mask>
<g mask="url(#mask1_796_22643)">
<path d="M90.7975 23.7698C90.8374 23.9405 90.8262 24.1192 90.7651 24.2834C90.7041 24.4476 90.596 24.5899 90.4545 24.6923C90.3131 24.7947 90.1446 24.8526 89.9705 24.8587C89.7963 24.8647 89.6243 24.8187 89.4761 24.7264C89.328 24.6341 89.2104 24.4996 89.1382 24.34C89.066 24.1805 89.0425 24.0029 89.0706 23.8299C89.0987 23.6569 89.1772 23.4961 89.2962 23.368C89.4151 23.2399 89.5692 23.1501 89.7388 23.11C89.9661 23.0575 90.2048 23.0973 90.403 23.2208C90.6013 23.3444 90.743 23.5417 90.7975 23.7698Z" fill="#0E004D"/>
<path d="M90.3501 23.8776C90.3689 23.9594 90.3632 24.045 90.3337 24.1236C90.3042 24.2022 90.2523 24.2702 90.1844 24.3191C90.1165 24.368 90.0358 24.3956 89.9523 24.3984C89.8689 24.4012 89.7865 24.379 89.7155 24.3348C89.6446 24.2905 89.5883 24.2261 89.5537 24.1496C89.519 24.0732 89.5077 23.9882 89.5211 23.9053C89.5345 23.8223 89.5719 23.7453 89.6288 23.6838C89.6856 23.6223 89.7593 23.5791 89.8406 23.5596C89.8948 23.5467 89.951 23.5446 90.006 23.5536C90.061 23.5626 90.1137 23.5824 90.1611 23.612C90.2084 23.6415 90.2495 23.6802 90.282 23.7258C90.3144 23.7714 90.3376 23.823 90.3501 23.8776Z" fill="#00142D"/>
<path d="M90.4916 23.933C90.5023 23.981 90.4938 24.0312 90.4679 24.0729C90.442 24.1145 90.4009 24.1442 90.3534 24.1556C90.3295 24.1615 90.3047 24.1626 90.2804 24.1588C90.2561 24.1549 90.2328 24.1463 90.2119 24.1334C90.191 24.1204 90.1728 24.1034 90.1584 24.0834C90.144 24.0633 90.1338 24.0406 90.1282 24.0165C90.1172 23.968 90.1258 23.9171 90.1521 23.875C90.1784 23.8329 90.2202 23.803 90.2684 23.7919C90.3166 23.7809 90.3672 23.7895 90.4091 23.816C90.4509 23.8424 90.4806 23.8845 90.4916 23.933Z" fill="white"/>
</g>
<path d="M87.9009 24.4017C88.1293 23.9999 88.4726 23.6766 88.8862 23.4738C89.2998 23.2711 89.7644 23.1983 90.2197 23.265C90.6132 23.2939 90.9891 23.4408 91.2989 23.6866C91.6087 23.9324 91.8382 24.2659 91.9579 24.6441C91.7602 24.3439 91.4991 24.0913 91.1932 23.9044C90.8873 23.7176 90.5441 23.601 90.1881 23.5631C89.7676 23.4998 89.338 23.5433 88.9385 23.6898C88.539 23.8363 88.1823 24.081 87.9009 24.4017Z" fill="#07003D"/>
<path d="M87.9009 23.8573C88.1492 23.4984 88.4909 23.2152 88.8885 23.0386C89.2895 22.8623 89.7292 22.7939 90.1644 22.8398C90.6006 22.8791 91.0228 23.0148 91.4009 23.2373C91.7761 23.454 92.0891 23.7648 92.3095 24.1395C92.0488 23.8086 91.7223 23.5362 91.3509 23.3398C90.9794 23.1433 90.5712 23.0272 90.1526 22.9988C89.7392 22.9522 89.3208 23.0054 88.9319 23.1538C88.5387 23.3048 88.1858 23.5456 87.9009 23.8573Z" fill="#AD625A"/>
<path d="M87.7785 24.4016C87.7785 24.4016 87.9009 25.3912 89.1848 25.8245C89.6296 25.9915 90.1097 26.0405 90.5788 25.9667C91.0479 25.8929 91.4902 25.6988 91.8631 25.4032C91.3812 26.0868 90.283 26.4961 88.9754 26.0629C88.6169 25.966 88.3023 25.748 88.0844 25.4456C87.8665 25.1432 87.7585 24.7746 87.7785 24.4016Z" fill="#F7A192"/>
<path d="M74.4825 7.58186C74.4825 7.58186 76.3391 3.52001 81.9091 1.27844C87.4791 -0.963133 86.6495 2.60192 86.6495 2.60192C91.5638 -1.07839 94.9966 1.5646 94.25 3.29347C99.6264 1.33806 102.084 5.6026 100.081 7.58186C102.597 7.89187 104.857 10.825 98.9272 13.5832C92.9977 16.3415 84.4966 14.9663 84.4966 14.9663C88.364 16.1587 84.7178 18.8732 80.25 17.2079C75.7821 15.5426 72.7088 11.5324 74.4825 7.58186Z" fill="#031833"/>
<path d="M111.268 52.2305C111.268 52.2305 119.67 65.978 123.988 78.4258C108.51 84.304 105.496 83.5687 105.496 83.5687C105.496 83.5687 105.216 57.9218 111.268 52.2305Z" fill="#D74F58"/>
<path d="M109.842 54.1384C109.842 54.1384 110.174 69.269 108.692 83.2987C107.211 97.3284 107.112 98.8268 107.112 98.8268C107.112 98.8268 105.741 91.6728 107.112 79.4396C108.483 67.2063 109.842 54.1384 109.842 54.1384Z" fill="#B33941"/>
<path d="M65.2532 76.737V76.6894C64.4632 76.2919 63.8864 75.8945 63.7718 75.5527C63.5151 74.8293 63.8667 73.7801 65.5258 73.5655C64.9411 73.168 64.5303 72.7706 64.4592 72.4765C64.3012 71.8326 64.6449 70.7238 65.5179 70.4535C66.004 70.1578 66.5394 69.9531 67.098 69.8494C68.3266 69.5434 71.1392 70.6999 72.7628 70.6641C73.9479 70.6125 74.8209 70.0998 74.9316 68.7485C75.0659 67.0554 74.3153 64.9171 75.1765 63.2678C76.0377 61.6184 78.5343 61.368 78.3367 62.453C78.1392 63.538 77.6257 67.9178 78.9254 70.9662C79.5627 72.6007 80.0108 74.3038 80.2606 76.0415C82.2713 77.6313 87.6912 81.101 98.4795 83.267C116.426 86.4863 121.569 91.2556 121.569 91.2556C125.172 94.1808 125.172 100.091 121.569 101.498C117.967 102.905 112.006 103.282 100.004 97.5233C90.3853 92.9169 80.6477 87.3527 77.1635 85.3218C76.1522 84.9243 75.1014 84.5786 74.5326 84.6024C72.4363 84.5543 70.3639 84.1443 68.4056 83.3902C66.5805 83.3227 64.5106 82.1979 64.1708 81.5501C63.9101 81.0572 63.9773 80.322 64.7871 79.849C64.3064 79.6787 63.8806 79.3806 63.5546 78.9866C63.1872 78.295 63.4203 77.1385 65.2532 76.737Z" fill="#F9A395"/>
<path d="M65.2532 76.737V76.6894C64.4632 76.2919 63.8864 75.8945 63.7718 75.5527C63.5151 74.8293 63.8667 73.7801 65.5258 73.5655C64.9411 73.168 64.5303 72.7706 64.4592 72.4765C64.3012 71.8326 64.6449 70.7238 65.5179 70.4535C66.004 70.1578 66.5394 69.9531 67.098 69.8494C68.3266 69.5434 72.4705 71.2007 74.0941 71.1649C75.2792 71.1132 75.6742 70.2468 75.7809 68.8915C75.9191 67.1984 74.3153 64.9171 75.1765 63.2678C76.0377 61.6184 78.5343 61.368 78.3367 62.453C78.1392 63.538 77.6257 67.9178 78.9254 70.9662C79.5627 72.6007 80.0108 74.3038 80.2606 76.0415C82.2713 77.6313 87.6912 81.101 98.4795 83.267C116.426 86.4863 121.569 91.2556 121.569 91.2556C125.172 94.1808 125.172 100.091 121.569 101.498C117.967 102.905 112.006 103.282 100.004 97.5233C90.3853 92.9169 80.6477 87.3527 77.1635 85.3218C76.1522 84.9243 75.1014 84.5786 74.5326 84.6024C72.4363 84.5543 70.3639 84.1443 68.4056 83.3902C66.5805 83.3227 64.5106 82.1979 64.1708 81.5501C63.9101 81.0572 63.9773 80.322 64.7871 79.849C64.3064 79.6787 63.8806 79.3806 63.5546 78.9866C63.1872 78.295 63.4203 77.1385 65.2532 76.737Z" fill="#FFB0A0"/>
<path d="M78.2773 84.344C78.2773 84.344 77.665 85.9814 79.9838 85.8662C78.8185 86.514 77.4201 86.1404 78.2773 84.344Z" fill="#F7A192"/>
<path d="M78.3529 62.2416C78.3529 62.2416 77.9381 62.2773 77.4522 62.3052C76.9663 62.333 76.8399 64.5904 76.9821 64.8647C77.1243 65.1389 77.5589 65.2621 78.0843 65.1826C78.2227 64.2074 78.3124 63.2258 78.3529 62.2416Z" fill="#FFC6BD"/>
<path d="M108.325 85.4962C108.325 85.4962 121.815 88.6281 124.043 95.1421C122.416 89.8204 117.786 86.6687 108.325 85.4962Z" fill="#EF978B"/>
<path d="M63.5422 79.1766C63.2262 78.5686 63.2104 76.7364 64.4508 76.3588C64.1995 76.2177 63.9912 76.0102 63.8485 75.7588C63.7058 75.5073 63.634 75.2214 63.641 74.932C63.6805 74.2484 63.6094 73.3104 64.9446 73.2627C64.6246 73.1117 64.5219 72.6864 64.4706 72.4678C64.3125 71.824 64.5693 70.3495 65.4463 70.0832C65.9404 69.8496 66.4805 69.7314 67.0264 69.7374C67.4233 69.742 67.8194 69.7752 68.2115 69.8368C68.093 69.8368 65.3752 70.3693 66.5484 73.6045C65.7189 74.7968 65.6043 75.7904 66.3786 76.9987C65.1935 78.4056 66.1771 79.9874 66.1771 79.9874C65.312 80.4763 65.4226 82.0581 66.2877 82.9245C65.2369 82.5271 64.273 81.9786 64.0202 81.613C63.5659 80.9532 63.3447 79.6973 64.1743 79.6933C63.9095 79.6016 63.6856 79.4186 63.5422 79.1766Z" fill="#F7A192"/>
<path d="M18.8917 22.4779C18.8917 22.4779 15.1586 36.6944 21.0762 43.9397C26.9939 51.1851 41.5666 47.3895 45.5091 46.8728C49.4515 46.3562 49.3528 31.3726 47.0892 21.4644C45.4143 14.0601 18.8917 22.4779 18.8917 22.4779Z" fill="#1C314E"/>
<path d="M46.849 28.4199C46.849 28.4199 48.4765 43.475 43.5741 47.1911C38.6678 50.7919 27.121 47.5885 27.121 47.5885C27.121 47.5885 23.0561 46.5989 21.1955 37.72C20.4251 34.0397 21.5391 25.7292 22.6847 23.1896C23.8303 20.6499 27.8557 20.4711 27.8557 20.4711L46.849 28.4199Z" fill="#07072B"/>
<path d="M27.9375 46.9839V45.3385C28.6828 44.9365 29.2705 44.2919 29.6045 43.5103C30.8963 40.5414 29.8178 36.1894 29.8178 36.1894L40.8788 31.8494C40.8788 31.8494 39.9268 38.582 40.7445 41.6503C41.5622 44.7185 43.5887 45.7916 43.5887 45.7916C43.5887 45.7916 48.7755 62.0867 36.9996 62.5279C26.8077 62.9015 27.258 52.8979 26.4956 50.3264L27.9375 46.9839Z" fill="#FFB0A0"/>
<path d="M43.0031 56.7414C40.0878 59.4797 35.4224 59.281 33.0878 56.5426C29.5878 52.4371 29.7813 44.4167 34.0595 40.7006C36.1769 39.1108 38.6143 37.8231 40.4986 35.8478C40.629 33.6619 40.8936 31.8297 40.8936 31.8297L28.8411 36.1658C28.8411 36.1658 30.208 40.4621 28.9162 43.431C28.5728 44.2573 27.9781 44.9529 27.2175 45.4182L24.9185 49.3927V51.666C25.6809 54.2335 26.8146 62.9295 37.0065 62.5559C42.537 62.3493 44.3344 58.6252 44.6702 54.7383C44.1537 55.4381 43.5971 56.1069 43.0031 56.7414Z" fill="#F7A192"/>
<path d="M44.4918 25.6734C44.4918 25.6734 45.8784 23.9405 47.2571 25.6734C48.6357 27.4062 46.6961 31.1143 44.9738 31.3687C43.2514 31.6231 43.3146 30.0969 43.4292 29.4967C43.5438 28.8966 44.4918 25.6734 44.4918 25.6734Z" fill="#FFB0A0"/>
<path d="M45.6931 29.4963C45.8337 29.2563 46.022 29.048 46.2461 28.8843C46.6925 28.5186 46.8347 27.366 46.8505 26.7063C46.8469 26.4256 46.7858 26.1488 46.6709 25.893C46.556 25.6372 46.3899 25.4081 46.1829 25.2199C45.9301 25.045 44.8833 26.138 44.8042 26.4758C44.7252 26.8136 44.4092 27.366 44.8042 27.8748C45.1993 28.3835 45.0294 28.5624 44.7252 28.7531C44.4211 28.9439 44.6462 29.2618 44.8042 29.4248C44.9623 29.5878 45.1993 29.2936 45.4561 28.9558C45.7128 28.618 45.2427 27.7993 45.1282 27.6721C45.0136 27.5449 45.9182 27.2349 46.2303 28.312C46.2619 27.7436 45.6773 26.7699 44.9346 27.366C45.1716 26.3287 45.5864 25.8677 45.8945 25.6531C46.2027 25.4385 46.412 26.13 46.5266 26.8096C46.6412 27.4893 46.5701 28.3676 46.2738 28.5902C45.9978 28.8299 45.7962 29.1445 45.6931 29.4963Z" fill="#E8867C"/>
<path d="M27.4962 14.1357C27.4962 14.1357 23.8777 17.2397 23.4827 23.2968C23.0877 29.3538 23.9686 34.608 27.4962 37.3384C31.0239 40.0688 34.4212 39.8105 38.7626 37.402C42.0019 35.6055 44.3168 30.4626 44.4511 26.7148C44.5854 22.9669 44.7158 17.5498 41.3422 14.1357C37.9686 10.7217 30.3168 12.0094 27.4962 14.1357Z" fill="#FFB0A0"/>
<path d="M28.9105 37.4457C25.3828 34.7153 25.5724 30.9873 25.9675 24.9343C26.2357 21.2097 27.236 17.5758 28.9105 14.2431C30.5617 13.007 33.8642 12.0492 36.9968 12.1526C33.4968 11.6438 29.3964 12.697 27.4962 14.1199C27.4962 14.1199 23.8777 17.2239 23.4827 23.2809C23.0877 29.3379 23.9686 34.5921 27.4962 37.3225C29.2462 38.6738 30.9646 39.3097 32.7818 39.2819C31.3635 38.9916 30.0356 38.3617 28.9105 37.4457Z" fill="#F7A192"/>
<path opacity="0.56" d="M41.6505 29.4968C41.6513 29.8728 41.5412 30.2407 41.334 30.5537C41.1268 30.8667 40.8319 31.1108 40.4867 31.2551C40.1415 31.3994 39.7615 31.4374 39.3949 31.3642C39.0282 31.291 38.6914 31.11 38.4271 30.8441C38.1628 30.5781 37.9828 30.2393 37.9101 29.8704C37.8374 29.5015 37.8751 29.1192 38.0185 28.7719C38.1619 28.4246 38.4046 28.1279 38.7157 27.9195C39.0268 27.711 39.3924 27.6002 39.7662 27.601C40.0138 27.6004 40.2591 27.6491 40.488 27.7442C40.7168 27.8393 40.9247 27.9789 41.0998 28.1551C41.2749 28.3312 41.4137 28.5404 41.5082 28.7706C41.6027 29.0009 41.6511 29.2476 41.6505 29.4968Z" fill="#FF9797"/>
<path d="M34.96 25.5461C34.96 25.5461 33.5063 23.5072 35.355 21.214C37.3302 20.9119 38.6773 20.6019 39.491 21.214C40.3048 21.826 40.4193 23.5986 39.9572 24.632C39.1118 23.8371 38.5666 23.2528 36.6705 23.7854C36.0305 24.0517 35.0824 24.7273 34.96 25.5461Z" fill="#F7A192"/>
<path d="M29.4987 25.5939C29.8234 24.1864 29.5955 22.7071 28.8627 21.4645C28.0706 21.1375 27.2259 20.9584 26.37 20.9359L24.6279 25.1249C24.6279 25.1249 27.0376 24.7514 27.8712 24.8587C28.4808 24.9113 29.0546 25.1705 29.4987 25.5939Z" fill="#F7A192"/>
<path d="M34.8982 24.7472C35.1636 24.3664 35.5246 24.0631 35.9444 23.8683C36.3643 23.6735 36.8279 23.5942 37.2881 23.6384C37.7924 23.6763 38.2804 23.8345 38.7118 24.0999C39.1432 24.3653 39.5056 24.7303 39.769 25.1646C39.208 25.093 38.7537 25.721 37.0748 25.7528C35.3959 25.7846 34.8982 24.7472 34.8982 24.7472Z" fill="white"/>
<mask id="mask2_796_22643" style="mask-type:luminance" maskUnits="userSpaceOnUse" x="34" y="23" width="6" height="3">
<path d="M34.9009 24.7475C35.1663 24.3666 35.5273 24.0633 35.9471 23.8685C36.3669 23.6737 36.8306 23.5944 37.2908 23.6386C37.7951 23.6765 38.2831 23.8347 38.7145 24.1001C39.1459 24.3655 39.5083 24.7305 39.7716 25.1648C39.2107 25.0933 38.7564 25.7212 37.0775 25.753C35.3986 25.7848 34.9009 24.7475 34.9009 24.7475Z" fill="white"/>
</mask>
<g mask="url(#mask2_796_22643)">
<path d="M38.547 24.4728C38.5869 24.6703 38.5679 24.8753 38.4923 25.0619C38.4167 25.2485 38.288 25.4084 38.1222 25.5216C37.9565 25.6348 37.7612 25.6961 37.5609 25.6978C37.3607 25.6996 37.1643 25.6417 36.9967 25.5315C36.829 25.4212 36.6975 25.2635 36.6187 25.0783C36.5399 24.893 36.5174 24.6884 36.5539 24.4903C36.5904 24.2921 36.6843 24.1093 36.8239 23.9648C36.9634 23.8202 37.1424 23.7204 37.3382 23.678C37.4695 23.6495 37.6051 23.6475 37.7372 23.6721C37.8692 23.6968 37.9951 23.7475 38.1075 23.8215C38.22 23.8954 38.3167 23.991 38.3921 24.1028C38.4676 24.2147 38.5202 24.3404 38.547 24.4728Z" fill="#0E004D"/>
<path d="M38.0291 24.5844C38.0436 24.6473 38.0455 24.7125 38.0346 24.7762C38.0237 24.8398 38.0003 24.9007 37.9657 24.9551C37.9311 25.0095 37.886 25.0565 37.8331 25.0931C37.7803 25.1298 37.7207 25.1554 37.6578 25.1686C37.5953 25.1822 37.5307 25.1832 37.4678 25.1717C37.4049 25.1602 37.3449 25.1363 37.2911 25.1014C37.2374 25.0665 37.191 25.0213 37.1546 24.9684C37.1182 24.9155 37.0926 24.8559 37.0791 24.793C37.0656 24.7301 37.0645 24.6652 37.076 24.6019C37.0875 24.5386 37.1112 24.4782 37.1459 24.4241C37.1805 24.37 37.2254 24.3234 37.278 24.2868C37.3306 24.2502 37.3899 24.2243 37.4524 24.2108C37.5147 24.1968 37.5791 24.1953 37.6419 24.2066C37.7047 24.2178 37.7647 24.2415 37.8184 24.2763C37.872 24.311 37.9183 24.3562 37.9544 24.4091C37.9906 24.4619 38.016 24.5215 38.0291 24.5844Z" fill="#00142D"/>
<path d="M38.1416 24.3301C38.1534 24.3854 38.143 24.4432 38.1127 24.4908C38.0823 24.5384 38.0345 24.5721 37.9797 24.5844C37.9384 24.5937 37.8953 24.5905 37.8559 24.5751C37.8165 24.5598 37.7825 24.5329 37.7583 24.4981C37.734 24.4632 37.7206 24.4219 37.7198 24.3794C37.7189 24.3369 37.7306 24.2951 37.7534 24.2592C37.7762 24.2234 37.8091 24.1952 37.8478 24.1783C37.8866 24.1613 37.9295 24.1563 37.9711 24.1638C38.0127 24.1714 38.0511 24.1913 38.0815 24.2209C38.1118 24.2505 38.1328 24.2885 38.1416 24.3301Z" fill="white"/>
</g>
<path d="M34.8982 24.7472C35.1793 24.2922 35.5932 23.9355 36.0833 23.7258C36.5801 23.5082 37.1283 23.4379 37.6634 23.5231C38.195 23.5931 38.6976 23.8074 39.1172 24.1431C39.532 24.474 39.8287 24.9315 39.9625 25.4467C39.7296 25.0006 39.3903 24.6196 38.9749 24.3379C38.5671 24.0672 38.1041 23.892 37.62 23.8252C37.1378 23.7504 36.6448 23.7926 36.1821 23.9484C35.6974 24.1089 35.2575 24.3827 34.8982 24.7472Z" fill="#072751"/>
<path d="M39.729 25.2479C39.4465 25.8739 38.9659 26.3882 38.3622 26.7104C37.264 27.3742 35.0281 26.8615 34.8069 24.9458C35.3757 26.0427 36.1065 26.5912 37.5721 26.5077C38.0034 26.4773 38.422 26.3479 38.7958 26.1295C39.1697 25.9111 39.4889 25.6095 39.729 25.2479Z" fill="#F7A192"/>
<path d="M34.9812 24.2144C35.2123 23.7369 35.6022 23.3558 36.0833 23.1373C36.5678 22.9255 37.101 22.8526 37.624 22.9267C38.1473 22.9867 38.6466 23.181 39.0738 23.491C39.4983 23.7983 39.8139 24.2343 39.9744 24.735C39.8804 24.4992 39.7468 24.2814 39.5794 24.0912C39.4132 23.8994 39.2234 23.7298 39.0145 23.5864C38.8051 23.4483 38.5812 23.3337 38.3469 23.2446C38.1103 23.1623 37.8651 23.1076 37.6161 23.0817C37.368 23.0539 37.1176 23.0539 36.8695 23.0817C36.6203 23.1106 36.376 23.172 36.1426 23.2645C35.6672 23.4528 35.2615 23.7847 34.9812 24.2144Z" fill="#AD625A"/>
<path d="M29.9335 24.7753C29.6987 24.3749 29.3626 24.0444 28.9593 23.8175C28.5561 23.5906 28.1003 23.4753 27.6383 23.4836C27.1318 23.4824 26.6322 23.6025 26.1809 23.834C25.7296 24.0655 25.3395 24.4018 25.043 24.815C25.6118 24.7832 26.0148 25.4469 27.6857 25.6099C29.3567 25.7728 29.9335 24.7753 29.9335 24.7753Z" fill="white"/>
<mask id="mask3_796_22643" style="mask-type:luminance" maskUnits="userSpaceOnUse" x="25" y="23" width="5" height="3">
<path d="M29.9347 24.7751C29.6999 24.3748 29.3638 24.0443 28.9606 23.8174C28.5574 23.5904 28.1015 23.4752 27.6396 23.4834C27.133 23.4822 26.6334 23.6024 26.1821 23.8339C25.7308 24.0654 25.3407 24.4017 25.0442 24.8149C25.613 24.7831 26.016 25.4468 27.687 25.6098C29.358 25.7727 29.9347 24.7751 29.9347 24.7751Z" fill="white"/>
</mask>
<g mask="url(#mask3_796_22643)">
<path d="M26.8331 24.1794C26.7759 24.373 26.777 24.5792 26.8363 24.7722C26.8956 24.9651 27.0104 25.136 27.1663 25.2633C27.3221 25.3906 27.5119 25.4686 27.7118 25.4874C27.9116 25.5062 28.1125 25.465 28.2891 25.3689C28.4656 25.2729 28.61 25.1263 28.7038 24.9478C28.7976 24.7693 28.8367 24.5668 28.8162 24.3659C28.7956 24.165 28.7164 23.9748 28.5884 23.8192C28.4604 23.6636 28.2895 23.5497 28.0972 23.4918C27.9693 23.4533 27.8352 23.4406 27.7024 23.4543C27.5696 23.4681 27.4408 23.508 27.3234 23.5719C27.206 23.6357 27.1023 23.7223 27.0181 23.8265C26.934 23.9308 26.8711 24.0507 26.8331 24.1794Z" fill="#0E004D"/>
<path d="M27.3391 24.33C27.311 24.4234 27.3111 24.5231 27.3394 24.6164C27.3678 24.7097 27.423 24.7925 27.4981 24.8542C27.5732 24.916 27.6648 24.9539 27.7613 24.9632C27.8579 24.9724 27.955 24.9527 28.0404 24.9064C28.1257 24.8601 28.1955 24.7894 28.2409 24.7031C28.2863 24.6169 28.3052 24.519 28.2952 24.422C28.2853 24.3249 28.2469 24.233 28.185 24.1579C28.1231 24.0828 28.0404 24.0279 27.9474 24.0001C27.8233 23.963 27.6896 23.9769 27.5756 24.0387C27.4616 24.1006 27.3765 24.2053 27.3391 24.33Z" fill="#00142D"/>
<path d="M27.2497 24.08C27.2419 24.1072 27.2394 24.1356 27.2425 24.1637C27.2456 24.1918 27.2542 24.219 27.2678 24.2437C27.2814 24.2685 27.2997 24.2903 27.3217 24.3079C27.3436 24.3255 27.3689 24.3385 27.3959 24.3463C27.4433 24.3488 27.4901 24.3354 27.5291 24.308C27.568 24.2807 27.5968 24.2412 27.6108 24.1955C27.6249 24.1499 27.6234 24.1009 27.6067 24.0562C27.5899 24.0116 27.5588 23.9738 27.5183 23.9489C27.4654 23.931 27.4076 23.9348 27.3574 23.9593C27.3072 23.9838 27.2685 24.0271 27.2497 24.08Z" fill="white"/>
</g>
<path d="M29.933 24.775C29.6945 24.302 29.3165 23.9146 28.8506 23.6662C28.3748 23.4142 27.8384 23.3013 27.3021 23.3403C26.767 23.3702 26.2499 23.5445 25.8049 23.845C25.3666 24.1436 25.0367 24.5774 24.8647 25.0811C25.1305 24.6547 25.4969 24.3011 25.9313 24.0517C26.3585 23.814 26.8342 23.678 27.3219 23.6543C27.8074 23.6145 28.2954 23.6936 28.744 23.8848C29.2038 24.0843 29.611 24.3892 29.933 24.775Z" fill="#072751"/>
<path d="M25.0908 24.8986C25.3212 25.5463 25.7607 26.0976 26.3391 26.4645C27.382 27.2117 29.6495 26.8619 30.005 24.982C29.3532 26.0313 28.5829 26.5201 27.141 26.3254C26.7136 26.2612 26.3064 26.0992 25.951 25.8519C25.5956 25.6045 25.3013 25.2784 25.0908 24.8986Z" fill="#F7A192"/>
<path d="M29.9026 24.2387C29.7056 23.7488 29.3471 23.3419 28.8874 23.0861C28.4211 22.8392 27.8965 22.7251 27.3705 22.7563C26.8442 22.7765 26.3317 22.931 25.8812 23.2054C25.4309 23.4841 25.0829 23.9026 24.8896 24.3977C25.0024 24.1673 25.1564 23.9598 25.3439 23.7856C25.5219 23.6058 25.724 23.452 25.9444 23.3286C26.164 23.2076 26.3957 23.1104 26.6357 23.0384C26.8788 22.9766 27.1278 22.9406 27.3784 22.9311C27.6281 22.9159 27.8787 22.9306 28.125 22.9748C28.3697 23.0222 28.6073 23.101 28.8321 23.2093C29.2841 23.4358 29.6573 23.7947 29.9026 24.2387Z" fill="#AD625A"/>
<path d="M35.5957 21.3176C36.5248 21.0145 37.4948 20.8577 38.4715 20.8526C40.0516 20.8526 41.3592 22.0449 41.3592 22.0449C39.9055 20.2684 38.9139 20.0935 37.7012 20.0259C36.4884 19.9584 35.4732 20.2247 35.1651 20.4472C34.857 20.6698 34.857 21.2739 35.5957 21.3176Z" fill="#072751"/>
<path d="M29.3168 21.7469C28.3883 21.4409 27.418 21.2827 26.4409 21.2779C24.8608 21.2779 23.5532 22.4702 23.5532 22.4702C25.0069 20.6937 25.9985 20.5188 27.2112 20.4512C28.424 20.3837 29.4392 20.65 29.7474 20.8725C30.0555 21.0951 30.0555 21.6992 29.3168 21.7469Z" fill="#072751"/>
<path d="M31.6498 25.6653C31.7155 26.3812 31.5 27.0945 31.0493 27.6525C31.0493 27.6525 30.599 28.201 30.362 28.499C30.0499 28.8965 30.2909 29.3774 30.7333 29.1747C31.0394 28.9488 31.2773 28.6421 31.4207 28.2884C31.6261 27.8035 32.0053 26.5158 31.6498 25.6653Z" fill="#FFC6BD"/>
<path d="M29.9098 29.711C29.9098 29.711 29.7637 30.3867 31.1265 30.9272C32.4894 31.4677 34.2196 30.6331 34.0419 29.6196C33.5204 30.1641 31.3675 30.7404 29.9098 29.711Z" fill="#F7A192"/>
<path d="M30.8324 22.7404C30.9232 23.2093 31.0101 23.6823 31.0654 24.1592C31.133 24.6305 31.1674 25.1059 31.1681 25.5821C31.1872 26.0459 31.1105 26.5087 30.943 26.9413C30.7445 27.3576 30.4407 27.7139 30.0621 27.9747C29.8803 28.1217 29.667 28.2529 29.4932 28.4198C29.3903 28.5053 29.3022 28.6074 29.2325 28.7219C29.1931 28.7854 29.165 28.8553 29.1495 28.9285C29.136 29.0117 29.1456 29.0969 29.1772 29.1749C29.302 29.41 29.4894 29.6054 29.7184 29.7393C29.925 29.8744 30.1463 29.985 30.3781 30.0692C30.8348 30.2404 31.3169 30.3331 31.8042 30.3434C32.289 30.3525 32.77 30.2563 33.2144 30.0612C32.7614 30.2038 32.2848 30.2552 31.8121 30.2123C31.3434 30.18 30.8838 30.067 30.4531 29.8784C30.2407 29.7886 30.0381 29.6767 29.8487 29.5446C29.6651 29.4333 29.5149 29.2739 29.4142 29.0835C29.3431 28.9484 29.4972 28.7576 29.6631 28.6145C29.829 28.4715 30.0344 28.3324 30.224 28.1853C30.6342 27.8939 30.9611 27.4992 31.1721 27.0407C31.3465 26.5743 31.414 26.0744 31.3696 25.5781C31.3149 24.6126 31.1343 23.6585 30.8324 22.7404Z" fill="#ED857A"/>
<path d="M33.1831 36.1697C33.2384 36.1022 31.5279 36.8374 30.3389 36.1697C30.7774 36.8811 32.1007 37.4773 33.1831 36.1697Z" fill="#F7A192"/>
<path d="M28.8364 31.6709C28.8364 31.6709 33.5768 32.283 36.1367 31.6709C34.9239 34.3139 30.78 36.6111 28.8364 31.6709Z" fill="#752727"/>
<path d="M36.0613 31.6868C33.7504 32.2074 29.8158 31.7861 28.9941 31.6868C29.2127 31.9575 29.5073 32.1556 29.8395 32.2551C31.4061 32.517 33.0008 32.5638 34.5799 32.3942C35.1349 32.3195 35.6529 32.0722 36.0613 31.6868Z" fill="white"/>
<path d="M32.2965 32.9507C31.8942 32.8855 31.4823 32.9155 31.0935 33.0383C30.7047 33.1611 30.3497 33.3733 30.0566 33.6582C31.5894 35.2002 33.5803 34.5961 34.9353 33.3164C33.8964 32.6765 33.5685 33.2011 32.2965 32.9507Z" fill="#B23030"/>
<path d="M37.3433 12.22C37.3433 12.22 36.9996 19.2826 28.8303 23.1894C31.2361 22.6728 37.4895 18.595 37.8766 12.0372C38.0939 9.96257 37.3433 12.22 37.3433 12.22Z" fill="#072751"/>
<path d="M37.4235 13.5992C37.4235 13.5992 28.0493 29.4174 17.4189 23.2054C18.2604 14.9147 22.3411 4.02084 35.1955 6.77909C39.4816 5.2847 47.406 11.7869 47.3507 25.8166C46.7068 24.9183 44.5854 24.3778 44.3089 26.5598C42.7683 20.6816 39.8806 14.4457 37.4235 13.5992Z" fill="#04162F"/>
<path d="M44.311 26.5442C44.5164 24.9544 45.6778 24.8153 46.5469 25.1889C43.0548 14.1361 37.4216 13.5836 37.4216 13.5836C39.8787 14.4461 42.7664 20.6819 44.311 26.5442Z" fill="#07072B"/>
<path d="M37.4754 29.2228C36.7526 29.2228 36.0462 29.0072 35.4453 28.6032C34.8444 28.1993 34.376 27.6251 34.0994 26.9533C33.8229 26.2816 33.7505 25.5424 33.8915 24.8292C34.0325 24.1161 34.3805 23.461 34.8915 22.9469C35.4026 22.4327 36.0537 22.0826 36.7625 21.9408C37.4713 21.7989 38.206 21.8717 38.8737 22.15C39.5414 22.4282 40.1121 22.8994 40.5136 23.504C40.9151 24.1086 41.1294 24.8193 41.1294 25.5465C41.1284 26.5212 40.7431 27.4556 40.058 28.1449C39.373 28.8341 38.4442 29.2217 37.4754 29.2228ZM37.4754 22.2159C36.8208 22.2167 36.1811 22.4127 35.6373 22.7791C35.0934 23.1456 34.6697 23.666 34.4198 24.2747C34.1698 24.8833 34.1048 25.5528 34.233 26.1986C34.3612 26.8445 34.6768 27.4375 35.1399 27.9029C35.603 28.3683 36.1929 28.6851 36.8349 28.8133C37.477 28.9415 38.1424 28.8753 38.7471 28.6231C39.3517 28.3709 39.8685 27.944 40.2321 27.3964C40.5956 26.8488 40.7897 26.205 40.7897 25.5465C40.7886 24.6628 40.439 23.8156 39.8176 23.1912C39.1961 22.5667 38.3537 22.2159 37.4754 22.2159Z" fill="#55556D"/>
<path d="M27.1282 29.2224C26.4055 29.2224 25.699 29.0068 25.0981 28.6029C24.4972 28.1989 24.0288 27.6247 23.7523 26.953C23.4757 26.2812 23.4033 25.542 23.5443 24.8289C23.6853 24.1157 24.0334 23.4607 24.5444 22.9465C25.0554 22.4324 25.7065 22.0822 26.4153 21.9404C27.1241 21.7985 27.8588 21.8713 28.5265 22.1496C29.1942 22.4279 29.7649 22.8991 30.1664 23.5036C30.5679 24.1082 30.7823 24.819 30.7823 25.5461C30.7812 26.5208 30.3959 27.4553 29.7109 28.1445C29.0258 28.8337 28.097 29.2214 27.1282 29.2224ZM27.1282 22.2155C26.4735 22.2155 25.8334 22.4109 25.289 22.7768C24.7446 23.1428 24.3204 23.663 24.0698 24.2715C23.8192 24.8801 23.7537 25.5498 23.8814 26.1958C24.0091 26.8419 24.3244 27.4354 24.7874 27.9012C25.2504 28.3669 25.8402 28.6841 26.4824 28.8127C27.1245 28.9412 27.7901 28.8752 28.395 28.6231C28.9999 28.371 29.5169 27.9442 29.8807 27.3965C30.2444 26.8487 30.4386 26.2048 30.4386 25.5461C30.4375 24.6631 30.0884 23.8166 29.4678 23.1922C28.8472 22.5678 28.0058 22.2166 27.1282 22.2155Z" fill="#55556D"/>
<path d="M34.3495 23.9845C31.9793 22.9194 30.2728 23.9845 30.257 23.9845L30.0713 23.6944C30.1463 23.6467 31.9319 22.5339 34.4917 23.6944L34.3495 23.9845Z" fill="#55556D"/>
<path d="M44.7716 25.427L40.9556 25.2521L40.9635 24.9064L45.3483 25.0733L44.7716 25.427Z" fill="#55556D"/>
<path d="M27.1807 50.6169C27.1807 50.6169 27.7811 55.9665 33.1062 56.5428C38.4312 57.1191 41.6034 52.5167 41.6034 52.5167C41.6034 52.5167 37.578 64.0743 33.2168 65.5131C28.8556 66.9518 27.1807 50.6169 27.1807 50.6169Z" fill="#D74F58"/>
<path d="M13.1792 128.711V155.852L66.41 154.243L59.651 122.523L13.1792 128.711Z" fill="#00468A"/>
<path d="M28.7083 43.8326C28.7083 43.8326 22.3561 49.6393 18.8522 49.8459C15.3482 50.0526 10.9199 52.628 9.78613 53.7846C12.3618 59.3845 15.2455 66.5385 13.9063 72.3411C12.5672 78.1438 11.7455 84.3677 13.2901 87.9964C14.8347 91.625 12.982 101.164 11.5361 114.693C10.0903 128.221 9.78613 133.941 9.78613 133.941C9.78613 133.941 28.6411 138.71 33.1761 128.635C37.7111 118.56 34.4126 63.7167 34.4126 63.7167C34.4126 63.7167 25.1767 56.0818 28.7083 43.8326Z" fill="white"/>
<path d="M26.1563 101.625C29.2455 100.902 32.3584 100.878 35.5937 100.763C35.5937 97.273 35.5107 92.7939 35.4357 89.3759H13.6733C14.3409 93.1794 10.9436 114.105 9.78613 133.941C13.1163 113.071 20.6772 103.147 26.1563 101.625Z" fill="#F0F6F7"/>
<path d="M41.6941 43.8326C41.9124 47.6663 41.172 51.4939 39.5406 54.9654C37.9092 58.4369 35.4389 61.4416 32.3555 63.7047C31.5655 75.628 32.0435 125.567 32.3555 126.187C32.6676 126.807 31.2731 133.806 46.7269 135.049C62.1806 136.293 64.8115 129.144 64.8115 129.144C64.8115 129.144 55.0739 96.0207 54.4577 84.5108C53.8414 73.0009 54.6117 55.5572 57.3928 50.9866C51.0564 48.7569 45.2969 47.9144 41.6941 43.8326Z" fill="white"/>
<path d="M55.0215 89.3759H31.9318C31.9318 92.9091 31.7184 97.4082 31.7342 100.902C41.4244 100.902 49.0288 100.433 56.3725 96.5298C55.8353 93.9623 55.3573 91.53 55.0215 89.3759Z" fill="#F0F6F7"/>
<path d="M31.7387 100.416C31.7387 100.416 31.4109 124.421 33.1846 128.634C34.9583 132.847 40.0344 133.94 40.0344 133.94C40.0344 133.94 34.4803 132.748 33.6784 127.331C32.8764 121.913 32.8883 100.416 32.8883 100.416H31.7387Z" fill="#F0F6F7"/>
<path d="M24.6277 82.2931C24.6277 82.2931 23.4939 88.3064 24.6277 94.423C30.9127 96.8076 42.661 97.1216 47.7095 96.1876C52.758 95.2536 55.3337 95.047 59.4578 94.2004C63.582 93.3539 64.1982 84.6618 64.4036 79.9998C64.6091 75.3378 63.8861 68.5933 63.1672 66.0894C62.4482 63.5855 60.3348 51.5987 57.3957 50.9866C54.4567 50.3745 52.3472 62.6356 52.7067 67.0432C53.0662 71.4509 52.758 78.8115 52.0391 79.8448C50.2338 81.1445 44.7981 82.6468 41.3969 82.7223C37.9956 82.7978 29.9843 83.851 24.6277 82.2931Z" fill="white"/>
<path d="M53.6198 73.6842C53.6198 73.6842 54.6271 72.941 55.1011 73.2868C55.5752 73.6326 54.5441 74.8567 54.7574 74.7693C54.9708 74.6818 56.065 73.716 56.7603 74.4036C57.4555 75.0912 54.5836 78.3303 54.5836 78.3303C54.5836 78.3303 56.0611 77.138 56.6418 77.2692C57.2225 77.4003 56.7089 78.3502 56.3415 78.8271C56.0544 79.1653 55.7189 79.4586 55.346 79.6975L51.5972 80.9733L53.6198 73.6842Z" fill="#F0F6F7"/>
<path d="M56.2308 53.3433C56.2308 53.3433 52.1699 58.3987 52.8888 64.8969C53.6078 71.3951 53.9159 75.6636 54.5164 78.0562C55.1168 80.4488 52.2884 86.4025 52.1185 86.6608C51.9486 86.9191 50.4041 85.0233 50.4041 85.0233C50.4041 85.0233 54.3544 83.2667 52.8888 75.4847C51.4232 67.7028 49.61 59.603 56.2308 53.3433Z" fill="#F0F6F7"/>
<path d="M52.5735 70.4336C52.5735 70.4336 52.1034 63.4864 56.3619 63.0849C60.6203 62.6835 59.9172 64.9291 58.5029 64.8695C57.0887 64.8098 54.438 67.4012 54.3827 69.9885C56.0419 67.8026 60.1818 69.1936 59.5972 69.9885C59.0125 70.7834 55.9273 71.4233 55.7022 72.4606C55.477 73.4979 56.0972 73.6529 55.1768 76.0376C54.2563 78.4222 52.6801 77.059 52.6801 77.059L52.5735 70.4336Z" fill="#F0F6F7"/>
<path d="M9.78683 53.7845C9.78683 53.7845 7.62204 56.4792 5.87204 62.1825C4.12204 67.8858 1.28175 76.0612 0.641797 79.7296C-0.642064 87.1021 0.890667 90.0154 1.96121 92.2967C3.03175 94.578 15.7874 98.2583 22.6807 99.1923C29.5741 100.126 38.5374 99.1923 38.5374 99.1923V89.447C38.5374 89.447 23.7829 87.0624 20.2355 85.715C16.6881 84.3677 14.942 82.138 14.6023 81.0491C14.2626 79.9601 14.2665 73.3784 14.2428 68.8158C14.2191 64.2532 12.6706 53.9912 9.78683 53.7845Z" fill="#F0F6F7"/>
<path d="M9.7883 53.7847C9.7883 53.7847 8.23582 56.531 6.48187 62.2343C4.72792 67.9376 3.19519 76.1765 2.36957 79.8052C1.54395 83.4338 2.68955 88.4694 3.75614 90.7507C4.82273 93.032 16.4525 97.2688 23.3459 98.1988C30.2392 99.1288 38.0056 98.636 38.0056 98.636L38.5389 89.4471C38.5389 89.4471 23.7844 87.0625 20.237 85.7152C16.6896 84.3678 14.9435 82.1382 14.6038 81.0492C14.264 79.9602 14.268 73.3785 14.2443 68.8159C14.2206 64.2533 12.6721 53.9913 9.7883 53.7847Z" fill="white"/>
<path d="M4.94483 81.5977L4.02835 82.2654C4.02835 82.2654 3.85059 82.8735 4.94483 82.8298C6.03908 82.7861 8.7174 82.8099 8.78061 82.8298C8.84381 82.8497 4.47474 85.9736 4.1113 86.2438L3.05262 87.0387C3.05262 87.0387 2.71683 88.4695 5.48207 87.8336C5.06218 88.4907 4.48307 89.0296 3.79922 89.3995C3.79922 89.3995 4.19426 90.4209 5.48207 90.1189C6.76988 89.8168 9.23095 88.3066 11.139 89.1491C9.68129 90.3415 7.87993 93.3143 7.87993 93.3143C7.87993 93.3143 9.42451 93.4177 10.1316 92.6426C10.8387 91.8676 13.2208 89.948 16.4759 91.7603C19.7309 93.5727 25.2733 93.7475 25.2733 93.7475L26.3399 87.6945L20.9793 83.2789C20.9793 83.2789 13.7778 80.6041 13.0035 80.473C12.2293 80.3418 4.94483 81.5977 4.94483 81.5977Z" fill="#F0F6F7"/>
<path d="M52.1873 68.7043C52.1873 68.7043 52.1873 75.3098 47.9841 78.6921C43.781 82.0743 38.3808 80.8025 33.2375 80.9654C28.0942 81.1284 26.6365 82.3922 21.3233 81.0688C16.0101 79.7453 14.4023 75.9656 14.6077 74.1056C13.3317 79.6698 16.3537 86.6687 16.3537 86.6687C16.3537 86.6687 22.0106 93.6319 33.8419 92.8569C45.6732 92.0819 53.1038 87.0781 54.1862 84.4907C55.2685 81.9034 52.1873 68.7043 52.1873 68.7043Z" fill="#F0F6F7"/>
<path d="M45.9609 82.7542C45.9609 82.7542 49.1528 79.8489 50.1325 77.7782C51.1122 75.7076 52.8108 73.6806 53.9959 73.3189C55.181 72.9573 53.8024 74.7577 53.1071 75.8467C52.4118 76.9357 50.4406 80.6676 49.8244 81.8719C49.2081 83.0761 45.9609 82.7542 45.9609 82.7542Z" fill="#FFB0A0"/>
<path d="M48.9307 83.2787C48.9307 83.2787 50.8624 79.5069 51.9053 77.4879C52.9482 75.4689 54.9589 74.1454 55.7687 74.1057C56.5785 74.066 56.1321 75.0119 55.5909 75.5842C55.0497 76.1565 52.8573 78.875 52.0593 80.9218C51.2614 82.9687 48.9307 83.2787 48.9307 83.2787Z" fill="#FFB0A0"/>
<path d="M51.5972 80.56C51.5972 80.56 54.0424 77.1301 56.4719 77.2135C57.1276 77.301 56.5588 77.9528 55.8477 78.4059C55.1367 78.8589 53.92 80.3931 53.363 80.8223C52.806 81.2516 51.5972 80.56 51.5972 80.56Z" fill="#FFB0A0"/>
<path d="M54.2095 73.1919C54.2612 73.2906 54.2985 73.3964 54.3201 73.5059C54.3201 73.6291 53.4549 74.3405 53.3009 74.42C53.1468 74.4995 53.0797 74.2133 52.7241 74.1457C53.21 73.5694 53.8618 73.172 54.2095 73.1919Z" fill="#FFC6BD"/>
<path d="M54.1787 74.9127C54.4086 75.0278 54.6119 75.1903 54.7752 75.3897C55.107 75.4334 56.0117 74.5471 56.1025 74.4318C56.1934 74.3166 55.7667 73.9867 55.4981 73.9668C55.2295 73.947 54.2972 74.6862 54.1787 74.9127Z" fill="#FFC6BD"/>
<path d="M55.1128 77.4921C55.498 77.3316 55.894 77.1988 56.2979 77.0947C56.6258 77.0351 56.7877 77.4007 56.6692 77.4921C56.3305 77.7112 55.9705 77.895 55.5947 78.0406C55.3933 78.1002 55.4407 77.6869 55.1128 77.4921Z" fill="#FFC6BD"/>
<path d="M49.3522 80.8101C49.3522 80.8101 51.995 76.6529 53.3026 75.6116C52.2715 76.2515 50.1937 79.0852 49.5814 79.9596C48.9691 80.834 48.7241 81.0724 48.7676 81.2751C48.811 81.4778 49.1587 81.1122 49.3522 80.8101Z" fill="#F7A192"/>
<path d="M53.619 78.426C53.619 78.426 51.3989 80.5802 50.8538 81.8003C50.3086 83.0205 50.2968 82.0467 50.5101 81.6851C50.7234 81.3234 52.6077 78.9189 53.619 78.426Z" fill="#F7A192"/>
<path d="M25.5534 83.6446C25.5534 83.6446 22.7881 82.9172 19.0116 81.6216C15.2351 80.3259 12.6911 79.2369 10.5974 79.1972C8.50372 79.1574 4.71138 80.9459 4.11883 81.7249C3.52628 82.5039 4.58498 82.5198 5.71873 82.1899C6.85247 81.86 9.86658 80.9459 11.8497 82.0627C8.26669 82.2933 7.01839 82.8775 6.015 83.6525C5.01161 84.4275 3.05225 86.5419 3.05225 87.0347C3.05225 87.5276 4.00428 87.6428 4.86545 87.1381C5.72663 86.6333 7.37787 85.3337 8.02572 84.972C8.67358 84.6103 10.8976 84.4673 11.8497 84.8806C9.58215 85.0118 8.64197 85.0754 7.65044 85.7749C6.6589 86.4744 4.00032 88.5569 3.787 89.1213C3.57369 89.6857 4.61658 89.9758 5.93205 89.2962C7.24751 88.6166 8.82764 87.309 9.77572 87.1738C10.8796 87.1077 11.9872 87.1974 13.0664 87.4401C10.7238 88.4576 10.0088 89.1014 9.21478 90.0156C8.42076 90.9297 7.51613 92.3644 7.43713 92.9288C7.35812 93.4932 8.40495 93.4733 9.29378 92.4439C10.1873 91.4642 11.3085 90.7227 12.5568 90.2858C13.9479 89.8707 15.4325 89.8985 16.8073 90.3653C18.9326 91.0251 23.3767 90.8303 25.2334 89.7811C27.0901 88.7318 25.5534 83.6446 25.5534 83.6446Z" fill="#FFB0A0"/>
<path d="M25.7783 82.9806H23.2264C23.2264 82.9806 21.8082 88.0241 22.6812 91.4342C25.9087 91.3905 26.679 90.4843 26.679 90.4843L25.7783 82.9806Z" fill="#D74F58"/>
<path d="M54.4563 79.7259C52.331 80.95 44.5567 82.663 41.3925 82.7345C37.9952 82.814 30.4303 83.3108 25.2475 82.7941C24.8557 86.9023 25.0004 91.0444 25.678 95.1148C32.3936 96.9152 42.6645 97.1298 47.7051 96.1958C52.7458 95.2619 55.3293 95.0552 59.4535 94.2086C62.5347 93.5886 63.6606 88.557 64.1149 84.1096C60.8835 81.1646 58.8056 79.4238 54.4563 79.7259Z" fill="white"/>
<path d="M51.0952 80.9653C51.0952 80.9653 57.6607 79.312 61.6624 83.5686C60.4417 80.2897 55.7092 77.6109 51.0952 80.9653Z" fill="#F0F6F7"/>
<path d="M29.369 41.774C29.369 41.774 24.6286 45.3311 22.0095 53.7847C23.5342 54.069 25.0355 54.4675 26.5011 54.9771L21.812 57.4491C21.812 57.4491 24.7234 63.8957 34.386 64.8694L35.8989 64.6389C35.8989 64.6389 25.6636 54.2696 29.369 41.774Z" fill="#DFEEEF"/>
<path d="M29.3666 41.774C29.3666 41.774 24.4405 44.1189 21.8096 52.5725C23.5638 52.9288 25.1863 53.765 26.4987 54.989H21.8057C21.8057 54.989 24.7171 63.9076 34.3796 64.8813L35.8926 64.6508C35.8926 64.6508 26.9332 55.5613 28.8136 44.1547C28.9005 43.6261 29.0782 43.1969 29.2086 42.5888C29.2402 42.3702 29.3113 42.0284 29.3666 41.774Z" fill="#F0F6F7"/>
<path d="M41.22 42.9501C42.4573 43.8987 43.5604 45.0125 44.4988 46.2608C45.9801 48.248 47.0862 53.8678 47.106 55.4218C45.5045 55.7288 43.8878 55.949 42.2629 56.0816L47.3983 59.6585C47.3983 59.6585 39.0275 65.9262 33.5958 67.826C28.1641 69.7257 28.168 75.4727 28.168 75.4727C28.168 75.4727 27.773 67.9213 33.426 62.7546C39.0789 57.5878 42.2115 50.9585 41.22 42.9501Z" fill="#DFEEEF"/>
<path d="M41.219 42.9501C42.4563 43.8987 43.5594 45.0125 44.4977 46.2608C45.9791 48.248 47.0852 52.6874 47.105 54.2414C45.4147 54.6294 43.7852 55.2486 42.2619 56.0816L47.105 58.1085C47.105 58.1085 39.0068 65.9143 33.5751 67.814C28.1433 69.7138 28.1473 75.4608 28.1473 75.4608C28.1473 75.4608 27.7523 67.9094 33.4052 62.7427C39.0581 57.5759 42.2105 50.9585 41.219 42.9501Z" fill="#F0F6F7"/>
<path d="M26.1563 94.28C25.9051 94.1959 25.6738 94.0606 25.4768 93.8826C25.5361 94.28 25.6032 94.6774 25.6783 95.0948L26.1642 95.218L26.4486 95.2895C33.1642 96.9071 42.8465 97.074 47.7054 96.1758C49.6055 95.8221 51.158 95.5757 52.5722 95.3571C39.8363 96.5653 27.689 94.753 26.1563 94.28Z" fill="#F0F6F7"/>
<path d="M42.4082 104.843L56.902 104.239L57.4985 107.431L42.4082 108.035V104.843Z" fill="#F0F6F7"/>
<path d="M13.6928 105.479C14.3762 105.392 27.2582 105.42 27.2582 105.42V108.265L13.1792 108.663L13.6928 105.479Z" fill="#F0F6F7"/>
<path d="M13.2705 105.408C13.2705 105.408 18.2282 104.661 27.2587 105.408C22.459 105.765 15.5183 105.924 13.2705 105.408Z" fill="#DFEEEF"/>
<path d="M42.4062 104.845C42.4062 104.845 51.729 103.982 56.8961 104.244C54.8696 105.135 46.7042 105.25 42.4062 104.845Z" fill="#DFEEEF"/>
<path d="M23.4451 49.687C22.3864 53.7727 23.2989 57.5683 24.6302 60.8989C24.6773 60.8052 24.7424 60.7219 24.8217 60.6536C24.9011 60.5854 24.993 60.5337 25.0924 60.5014C23.8361 57.3219 22.9987 53.6893 23.9981 49.8341C25.2148 45.1244 27.8813 42.7119 29.3903 41.6667L29.4733 40.8241C28.0314 41.6786 24.8514 44.1785 23.4451 49.687Z" fill="#07003D"/>
<path d="M29.2977 81.6849C29.2606 81.6909 29.2227 81.6895 29.1862 81.6808C29.1496 81.6721 29.1151 81.6562 29.0847 81.634C29.0542 81.6119 29.0284 81.5839 29.0087 81.5517C28.989 81.5196 28.9758 81.4838 28.9698 81.4465C28.9639 81.4091 28.9653 81.371 28.9739 81.3342C28.9826 81.2975 28.9984 81.2628 29.0204 81.2321C29.0424 81.2015 29.0702 81.1755 29.1022 81.1557C29.1342 81.1359 29.1698 81.1226 29.2068 81.1166C30.151 80.9497 30.9331 80.6158 30.9687 80.4409C30.9687 79.8885 29.7243 68.1202 29.2385 65.4892C28.8632 63.4622 27.9585 60.9941 25.7898 60.7715C25.4095 60.7272 25.0241 60.7637 24.6586 60.8787C24.2932 60.9937 23.9559 61.1847 23.6685 61.4392C22.7836 62.1984 22.2542 63.494 22.1752 65.0838C22.0133 68.3229 23.0404 80.4171 23.4354 81.1365C23.6843 81.4266 24.7548 81.5339 25.4106 81.4862C25.4505 81.4799 25.4914 81.4822 25.5304 81.4928C25.5695 81.5035 25.6059 81.5222 25.6373 81.548C25.6686 81.5737 25.6943 81.6057 25.7125 81.6421C25.7307 81.6784 25.7412 81.7182 25.7431 81.7589C25.7451 81.7995 25.7385 81.8402 25.7238 81.8781C25.7091 81.916 25.6867 81.9504 25.658 81.9791C25.6292 82.0077 25.5948 82.0299 25.5569 82.0443C25.519 82.0587 25.4786 82.0649 25.4382 82.0625C25.1222 82.0625 23.5026 82.1261 22.9653 81.4942C22.357 80.7827 21.4484 67.7069 21.5827 65.056C21.6696 63.3033 22.2701 61.8764 23.2734 60.9981C23.6217 60.695 24.0286 60.4679 24.4685 60.3311C24.9085 60.1943 25.3718 60.1507 25.8293 60.2032C27.8242 60.4099 29.191 62.1904 29.7796 65.3898C30.2695 68.0249 31.5296 79.9004 31.5217 80.4608C31.5217 81.2199 29.9416 81.5736 29.2819 81.6929L29.2977 81.6849Z" fill="#07003D"/>
<path d="M24.5911 81.6206C24.5911 81.6206 24.5911 81.3544 24.8242 81.3504C25.0573 81.3464 25.6538 81.3067 25.8078 81.4378C25.9619 81.569 25.9145 82.1453 25.8078 82.2327C25.4731 82.2845 25.133 82.2911 24.7965 82.2526C24.5951 82.2605 24.5635 81.8551 24.5911 81.6206Z" fill="#66657A"/>
<path d="M30.0783 80.9857C30.0609 80.9291 30.0223 80.8817 29.9706 80.8535C29.9189 80.8253 29.8583 80.8185 29.8018 80.8346C29.5963 80.8943 28.9722 80.9976 28.8616 81.1685C28.751 81.3394 28.9603 81.8402 29.0788 81.9037C29.4155 81.8671 29.7453 81.7828 30.0585 81.6534C30.26 81.5977 30.1573 81.2003 30.0783 80.9857Z" fill="#66657A"/>
<path d="M25.8599 60.0522C25.3825 59.9977 24.8991 60.0441 24.4406 60.1885C23.9821 60.3329 23.5586 60.5721 23.1974 60.8908C22.1663 61.781 21.5461 63.2556 21.4592 65.048C21.4592 65.2308 21.4592 65.4932 21.4592 65.8032L22.3164 65.7356C22.3164 65.4931 22.3164 65.2746 22.3164 65.0917C22.3955 63.5417 22.909 62.2818 23.7583 61.5466C24.0322 61.3064 24.3528 61.1262 24.6996 61.0174C25.0464 60.9086 25.412 60.8736 25.773 60.9146C27.7482 61.1173 28.6251 63.2675 29.0281 65.1752L29.8893 65.1037C29.2611 62.0076 27.8706 60.2588 25.8599 60.0522Z" fill="#66657A"/>
<path d="M49.9709 55.9223C46.9252 43.8043 42.406 41.6741 40.6797 41.3044L40.8417 41.9364C42.5245 42.4411 46.5894 44.8297 49.4139 56.0615C50.6541 60.8318 51.1866 65.7603 50.994 70.6873H51.5668C51.7604 65.7134 51.2226 60.7381 49.9709 55.9223Z" fill="#07003D"/>
<path d="M51.44 72.7071C52.5898 72.7071 53.5218 71.7694 53.5218 70.6126C53.5218 69.4558 52.5898 68.5181 51.44 68.5181C50.2902 68.5181 49.3582 69.4558 49.3582 70.6126C49.3582 71.7694 50.2902 72.7071 51.44 72.7071Z" fill="#66657A"/>
<path d="M51.4399 71.8401C52.114 71.8401 52.6605 71.2903 52.6605 70.612C52.6605 69.9337 52.114 69.3839 51.4399 69.3839C50.7657 69.3839 50.2192 69.9337 50.2192 70.612C50.2192 71.2903 50.7657 71.8401 51.4399 71.8401Z" fill="#8C8C9B"/>
</svg>
