<svg width="134" height="172" viewBox="0 0 134 172" fill="none" xmlns="http://www.w3.org/2000/svg">
<path d="M100.445 27.7347C100.445 27.7347 101.894 39.7759 104.551 43.6331C97.712 49.445 76.8699 47.3458 73.8925 46.9405L70.915 46.5391C70.915 46.5391 73.4122 44.6607 72.7679 34.0965C72.1236 23.5323 74.6168 19.4985 76.1456 19.647C77.6743 19.7956 80.9719 14.2405 80.9719 14.2405C80.9719 14.2405 90.8727 7.80251 100.445 27.7347Z" fill="#00214D"/>
<path d="M100.499 45.792C97.9814 40.4577 98.0094 31.7439 98.0094 31.7439C98.0094 31.7439 85.2632 28.7938 76.7991 29.9859C77.1473 33.3454 76.1068 42.0873 74.366 47.0161C77.8837 47.4215 92.1266 48.6899 100.499 45.792Z" fill="#050026"/>
<path d="M93.8048 37.2107C93.8048 37.2107 93.9689 42.9905 94.4091 45.6395C94.8493 48.2886 97.1865 49.7576 97.1865 49.7576C97.1865 49.7576 98.7312 68.0563 87.7179 68.0563C77.585 68.0563 78.2773 49.3522 78.2773 49.3522C78.2773 49.3522 80.6105 48.7863 80.9306 45.8001C81.2508 42.8139 81.0107 37.8047 81.0107 37.8047L93.8048 37.2107Z" fill="#FFB0A0"/>
<path d="M94.7273 46.7795C94.7273 46.7795 94.3751 59.471 88.7244 66.1298C91.2736 68.835 94.131 65.6481 94.131 65.6481C94.131 65.6481 96.5441 49.3764 94.7273 46.7795Z" fill="#F99585"/>
<path d="M93.9862 41.1923C93.8581 39.0851 93.8061 37.2107 93.8061 37.2107L80.9999 37.8168C80.9999 37.8168 81.236 42.7055 80.9319 45.7038C83.9974 42.9343 86.9348 45.7038 91.3369 43.5203C92.1133 43.143 93.666 41.9068 93.9862 41.1923Z" fill="#F99585"/>
<path d="M76.5404 28.4646C76.5404 28.3843 75.9521 26.5541 74.8236 26.4577C73.695 26.3614 73.1067 28.1275 73.623 30.1986C74.1392 32.2696 75.4399 33.8551 76.1282 33.9072C76.8165 33.9594 77.1887 32.4021 77.1887 32.4021L76.5404 28.4646Z" fill="#F7A192"/>
<path d="M75.1228 32.6592C75.0051 32.3756 74.837 32.1158 74.6266 31.8926C74.2264 31.435 74.1023 29.9901 74.0903 29.1672C74.0784 28.4981 74.2866 27.8436 74.6826 27.3049C74.9107 27.0841 75.8472 28.4568 75.9192 28.8742C75.9912 29.2917 76.2594 29.9901 75.9192 30.6323C75.579 31.2745 75.7191 31.4912 75.9873 31.728C76.2554 31.9648 76.0593 32.3662 75.9192 32.5709C75.7791 32.7756 75.5751 32.4063 75.3349 31.9849C75.0948 31.5634 75.527 30.5359 75.6311 30.3794C75.7351 30.2229 74.9267 29.8335 74.6426 31.1821C74.6146 30.4717 75.1388 29.2475 75.8032 29.978C75.5911 28.6776 75.2189 28.0996 74.9427 27.8307C74.6666 27.5617 74.4825 28.4287 74.3785 29.2796C74.2744 30.1305 74.3384 31.2303 74.6026 31.5113C74.8649 31.8467 75.0433 32.2404 75.1228 32.6592Z" fill="#ED867C"/>
<path d="M97.3954 28.4647C97.3954 28.3845 97.9837 26.5542 99.1122 26.4579C100.241 26.3615 100.829 28.1276 100.313 30.1987C99.7965 32.2698 98.4959 33.8552 97.8076 33.9074C97.1192 33.9595 96.7471 32.4022 96.7471 32.4022L97.3954 28.4647Z" fill="#FFB0A0"/>
<path d="M98.8738 32.6592C98.9915 32.3756 99.1596 32.1158 99.37 31.8926C99.7702 31.435 99.8943 29.9901 99.9063 29.1672C99.9182 28.4981 99.71 27.8436 99.314 27.3049C99.0859 27.0841 98.1494 28.4568 98.0774 28.8742C98.0054 29.2917 97.7372 29.9901 98.0774 30.6323C98.4176 31.2745 98.2775 31.4912 98.0093 31.728C97.7412 31.9648 97.9373 32.3662 98.0774 32.5709C98.2175 32.7756 98.4215 32.4063 98.6617 31.9849C98.9018 31.5634 98.4696 30.5359 98.3655 30.3794C98.2615 30.2229 99.0699 29.8335 99.354 31.1821C99.382 30.4717 98.8578 29.2475 98.1934 29.978C98.4055 28.6776 98.7777 28.0996 99.0539 27.8307C99.33 27.5617 99.5141 28.4287 99.6181 29.2796C99.7222 30.1305 99.6581 31.2303 99.394 31.5113C99.1317 31.8467 98.9533 32.2404 98.8738 32.6592Z" fill="#F99585"/>
<path d="M76.512 16.8976C76.512 16.8976 76.8321 24.1625 76.2959 27.6584C75.7596 31.1544 78.8371 37.2914 79.8656 38.5959C81.8025 41.0724 84.4478 41.6985 86.8089 42.4009C89.1701 43.1033 92.5117 40.9961 93.9884 39.0173C96.4896 35.6659 97.5902 29.862 97.6982 28.3568C97.8063 26.8517 96.3576 20.2892 96.6257 16.4681C96.8938 12.6471 89.1181 11.7319 84.932 12.3781C80.746 13.0244 76.464 15.5008 76.512 16.8976Z" fill="#FFB0A0"/>
<path d="M82.608 39.8237C81.5755 38.5072 78.498 32.3823 79.0382 28.8863C79.5785 25.3903 79.2503 18.1255 79.2503 18.1255C79.2023 16.7287 83.4884 14.2522 87.6744 13.606C90.2352 13.251 92.84 13.3872 95.3501 14.0074C93.013 12.2614 88.0026 11.8921 84.9451 12.3657C80.7631 13.012 76.477 15.4884 76.541 16.8852C76.541 16.8852 76.8612 24.1501 76.3249 27.646C75.7887 31.142 78.8662 37.279 79.8947 38.5835C81.3033 40.3856 83.0962 41.2045 84.8611 41.7945C83.9974 41.2796 83.234 40.6119 82.608 39.8237Z" fill="#F7A192"/>
<g opacity="0.31">
<path d="M96.047 31.9322C96.0478 32.3412 95.9276 32.7412 95.7016 33.0817C95.4757 33.4222 95.1541 33.6877 94.7775 33.8448C94.401 34.0019 93.9865 34.0434 93.5864 33.9641C93.1864 33.8848 92.8187 33.6882 92.5301 33.3993C92.2415 33.1104 92.0448 32.742 91.9649 32.341C91.8851 31.9399 91.9257 31.5241 92.0816 31.1461C92.2374 30.7682 92.5016 30.4451 92.8406 30.2178C93.1796 29.9905 93.5782 29.8691 93.986 29.8691C94.532 29.8691 95.0556 30.0864 95.442 30.4732C95.8284 30.8599 96.046 31.3847 96.047 31.9322Z" fill="#F49292"/>
</g>
<g opacity="0.31">
<path d="M81.1123 34.0035C82.2505 34.0035 83.1733 33.0781 83.1733 31.9365C83.1733 30.7948 82.2505 29.8694 81.1123 29.8694C79.974 29.8694 79.0513 30.7948 79.0513 31.9365C79.0513 33.0781 79.974 34.0035 81.1123 34.0035Z" fill="#F49292"/>
</g>
<path d="M90.3997 28.5176C90.0259 27.9927 89.8565 27.3489 89.9235 26.7074C90.0636 25.6919 90.3477 24.8651 92.0966 25.1019C93.8454 25.3387 94.8979 25.6477 94.5497 28.341C94.1936 27.8874 93.1651 28.1924 92.4487 28.1001C91.7324 28.0078 90.3997 28.5176 90.3997 28.5176Z" fill="#F7A192"/>
<path d="M84.0817 28.3806C84.2757 28.1517 84.4195 27.8843 84.5036 27.5959C84.5877 27.3075 84.6103 27.0046 84.57 26.7069C84.4259 25.6914 84.1457 24.8646 82.3969 25.1014C80.6481 25.3382 79.5955 25.4345 79.9317 28.1277C80.2879 27.6742 81.3284 28.192 82.0447 28.0996C82.7339 28.0904 83.4206 28.1851 84.0817 28.3806Z" fill="#F7A192"/>
<path d="M96.6241 16.4678C96.6364 16.2775 96.6284 16.0865 96.6001 15.8979C95.7941 14.8152 94.807 13.8808 93.6827 13.1364C91.1055 12.1611 87.3957 11.9965 84.9305 12.3778C80.7485 13.024 76.4624 15.5005 76.5264 16.8973C76.5264 16.8973 76.8466 24.1622 76.3103 27.6581C76.244 28.1368 76.2306 28.6214 76.2703 29.1031C76.3583 29.6851 76.4424 30.251 76.5264 30.7929C76.8024 31.9768 77.1731 33.1365 77.635 34.2607C78.7668 32.3791 79.3864 30.2325 79.4318 28.0354C82.0766 27.778 84.6438 26.9948 86.9835 25.7315C90.4852 23.7247 90.5292 20.4414 92.278 20.313C92.3981 20.9592 94.4631 23.235 95.3115 25.0492C95.9431 26.3484 96.6722 27.5976 97.4926 28.786C97.4926 28.786 97.4926 27.4735 97.4485 25.7396C97.0924 23.0544 96.4401 19.1048 96.6241 16.4678Z" fill="#F7A192"/>
<path d="M79.8071 28.2682C79.8071 28.2682 80.2073 28.9826 81.612 29.2234C82.0601 29.2742 82.5138 29.225 82.9407 29.0793C83.3676 28.9336 83.7571 28.695 84.0812 28.3805L81.532 27.927L80.1513 27.8547C80.0145 27.9724 79.8982 28.1122 79.8071 28.2682Z" fill="#F7A192"/>
<path d="M94.6607 28.4046C94.6607 28.4046 94.2605 29.1191 92.8558 29.3599C92.4083 29.411 91.9551 29.3618 91.5288 29.2161C91.1026 29.0703 90.7138 28.8316 90.3906 28.517L92.9358 28.0635L94.3165 27.9912C94.4533 28.1089 94.5696 28.2486 94.6607 28.4046Z" fill="#F7A192"/>
<path d="M90.3977 25.659C90.3977 25.659 92.0705 24.8924 93.3591 25.4704C94.6477 26.0484 94.8438 26.3815 94.9599 26.1407C95.0759 25.8998 94.0154 24.487 92.4267 24.2863C90.8379 24.0856 90.0255 24.6877 89.8454 25.0891C89.6653 25.4904 89.9735 25.7754 90.3977 25.659Z" fill="#0E004D"/>
<path d="M84.0991 25.4707C84.0991 25.4707 82.3302 24.965 81.1416 25.7316C79.9531 26.4983 79.817 26.8635 79.6529 26.6428C79.4888 26.422 80.3373 24.8647 81.878 24.4232C83.4187 23.9816 84.3032 24.4633 84.5513 24.8245C84.7994 25.1858 84.5313 25.5029 84.0991 25.4707Z" fill="#0E004D"/>
<path d="M90.4009 28.5172C90.5887 28.1401 90.8777 27.823 91.2355 27.6018C91.5933 27.3805 92.0055 27.2639 92.4259 27.2649C92.8412 27.2418 93.2555 27.3273 93.628 27.513C94.0005 27.6988 94.3185 27.9784 94.5509 28.3246C94.5509 28.3246 93.5264 28.5052 92.5899 28.5694C91.8599 28.5981 91.1288 28.5806 90.4009 28.5172Z" fill="white"/>
<mask id="mask0_796_22800" style="mask-type:luminance" maskUnits="userSpaceOnUse" x="90" y="27" width="5" height="2">
<path d="M90.3972 28.5173C90.585 28.1402 90.8741 27.8232 91.2318 27.6019C91.5896 27.3807 92.0019 27.264 92.4222 27.2651C92.8376 27.2419 93.2518 27.3274 93.6243 27.5132C93.9969 27.6989 94.3149 27.9786 94.5472 28.3247C94.5472 28.3247 93.5227 28.5053 92.5863 28.5695C91.8562 28.5982 91.1251 28.5808 90.3972 28.5173Z" fill="white"/>
</mask>
<g mask="url(#mask0_796_22800)">
<path d="M93.3412 27.7103C93.3725 27.8774 93.3536 28.0501 93.2869 28.2064C93.2203 28.3627 93.1089 28.4957 92.9669 28.5885C92.8248 28.6813 92.6585 28.7297 92.489 28.7276C92.3195 28.7256 92.1544 28.6731 92.0146 28.5768C91.8749 28.4806 91.7668 28.3449 91.704 28.187C91.6412 28.029 91.6265 27.856 91.6619 27.6897C91.6972 27.5234 91.781 27.3714 91.9025 27.2529C92.0241 27.1344 92.178 27.0547 92.3447 27.024C92.4551 27.0031 92.5685 27.0043 92.6784 27.0275C92.7884 27.0508 92.8926 27.0956 92.9852 27.1593C93.0778 27.2231 93.1569 27.3046 93.218 27.3992C93.2791 27.4937 93.321 27.5995 93.3412 27.7103Z" fill="#0E004D"/>
<path d="M92.9053 27.7823C92.9176 27.8597 92.907 27.9391 92.8748 28.0105C92.8426 28.082 92.7903 28.1425 92.7242 28.1844C92.6581 28.2264 92.5813 28.248 92.5031 28.2467C92.4249 28.2453 92.3488 28.221 92.2843 28.1767C92.2197 28.1325 92.1695 28.0702 92.1398 27.9977C92.1101 27.9251 92.1023 27.8454 92.1173 27.7685C92.1322 27.6915 92.1694 27.6206 92.2241 27.5646C92.2788 27.5085 92.3487 27.4698 92.4251 27.4531C92.4783 27.4415 92.5333 27.4409 92.5867 27.4514C92.6402 27.4619 92.6909 27.4831 92.7359 27.514C92.7808 27.5448 92.819 27.5845 92.8481 27.6306C92.8773 27.6767 92.8967 27.7283 92.9053 27.7823Z" fill="#05002D"/>
<path d="M93.0004 27.5898C93.007 27.625 93.003 27.6614 92.989 27.6943C92.9749 27.7272 92.9514 27.7552 92.9214 27.7747C92.8915 27.7942 92.8564 27.8043 92.8207 27.8038C92.785 27.8033 92.7502 27.7921 92.7209 27.7717C92.6915 27.7513 92.6689 27.7226 92.6558 27.6893C92.6427 27.656 92.6398 27.6195 92.6475 27.5845C92.6551 27.5495 92.673 27.5176 92.6988 27.4928C92.7246 27.468 92.7571 27.4515 92.7923 27.4453C92.8154 27.4407 92.8393 27.4408 92.8624 27.4456C92.8855 27.4504 92.9075 27.4598 92.9269 27.4733C92.9463 27.4868 92.9628 27.504 92.9754 27.5241C92.9881 27.5441 92.9966 27.5664 93.0004 27.5898Z" fill="white"/>
</g>
<path d="M90.4009 28.5167C90.5504 28.0892 90.8305 27.7199 91.2013 27.4611C91.5859 27.1939 92.0518 27.0703 92.5179 27.1119C92.9725 27.128 93.4168 27.2518 93.8145 27.4731C94.0099 27.5906 94.1832 27.7413 94.3268 27.9187C94.4642 28.0917 94.5811 28.2803 94.6749 28.4806C94.4083 28.1466 94.0741 27.873 93.6945 27.6778C93.3147 27.5139 92.9072 27.424 92.4939 27.4129C92.0904 27.375 91.6849 27.4589 91.3293 27.6538C90.9593 27.8681 90.642 28.163 90.4009 28.5167Z" fill="#0E004D"/>
<path d="M90.5132 28.0354C90.6443 27.643 90.9002 27.3046 91.2415 27.0721C91.5839 26.8303 91.9878 26.6911 92.4061 26.6708C92.8226 26.6456 93.2379 26.7358 93.6067 26.9317C93.9726 27.1216 94.2654 27.4279 94.4391 27.8026C94.2212 27.4689 93.913 27.2044 93.5507 27.04C93.1936 26.8813 92.8041 26.8098 92.4141 26.8313C92.0248 26.8468 91.6454 26.9585 91.3096 27.1564C90.969 27.371 90.6936 27.675 90.5132 28.0354Z" fill="#DD857A"/>
<path d="M84.0818 28.3808C83.901 28.0007 83.6178 27.679 83.2642 27.452C82.9106 27.225 82.5006 27.1018 82.0808 27.0964C81.6662 27.0649 81.2506 27.1419 80.8746 27.3199C80.4986 27.4979 80.1751 27.7708 79.9358 28.1118C79.9358 28.1118 80.9603 28.3125 81.8967 28.3928C82.6246 28.4362 83.3545 28.4322 84.0818 28.3808Z" fill="white"/>
<mask id="mask1_796_22800" style="mask-type:luminance" maskUnits="userSpaceOnUse" x="79" y="27" width="6" height="2">
<path d="M84.0842 28.3803C83.9035 28.0002 83.6203 27.6785 83.2666 27.4515C82.913 27.2245 82.5031 27.1013 82.0833 27.0959C81.6687 27.0644 81.253 27.1414 80.877 27.3194C80.501 27.4974 80.1775 27.7703 79.9382 28.1113C79.9382 28.1113 80.9627 28.312 81.8992 28.3923C82.627 28.4357 83.3569 28.4317 84.0842 28.3803Z" fill="white"/>
</mask>
<g mask="url(#mask1_796_22800)">
<path d="M81.1563 27.5211C81.1226 27.6874 81.1388 27.8601 81.2029 28.0172C81.267 28.1743 81.3761 28.3089 81.5164 28.4039C81.6567 28.4988 81.8219 28.55 81.9911 28.5509C82.1604 28.5518 82.3261 28.5023 82.4674 28.4088C82.6086 28.3153 82.7191 28.1819 82.7848 28.0255C82.8505 27.869 82.8685 27.6965 82.8366 27.5298C82.8046 27.3631 82.7242 27.2097 82.6053 27.0888C82.4864 26.9679 82.3345 26.8851 82.1688 26.8508C81.946 26.8057 81.7144 26.8509 81.5247 26.9765C81.335 27.1021 81.2025 27.2979 81.1563 27.5211Z" fill="#0E004D"/>
<path d="M81.5918 27.6097C81.5796 27.6627 81.5783 27.7178 81.5879 27.7714C81.5975 27.825 81.6179 27.876 81.6479 27.9215C81.6779 27.9669 81.7167 28.0057 81.7621 28.0356C81.8075 28.0655 81.8585 28.0858 81.912 28.0953C82.0181 28.1172 82.1286 28.0958 82.219 28.036C82.3094 27.9761 82.3725 27.8827 82.3942 27.7762C82.416 27.6698 82.3947 27.559 82.335 27.4683C82.2753 27.3776 82.1822 27.3144 82.0761 27.2926C82.0234 27.2803 81.9689 27.2788 81.9156 27.2882C81.8624 27.2976 81.8117 27.3178 81.7664 27.3474C81.7212 27.377 81.6824 27.4155 81.6524 27.4606C81.6224 27.5057 81.6018 27.5564 81.5918 27.6097Z" fill="#05002D"/>
<path d="M81.4882 27.4048C81.483 27.428 81.4825 27.4521 81.4867 27.4755C81.491 27.4989 81.5 27.5213 81.513 27.5411C81.5261 27.561 81.5431 27.578 81.5629 27.5912C81.5827 27.6043 81.6049 27.6133 81.6283 27.6175C81.675 27.627 81.7235 27.6176 81.7633 27.5912C81.803 27.5649 81.8308 27.5239 81.8404 27.4771C81.8499 27.4302 81.8404 27.3816 81.8142 27.3417C81.7879 27.3018 81.747 27.274 81.7003 27.2643C81.6536 27.2549 81.6051 27.2643 81.5654 27.2906C81.5256 27.317 81.4979 27.358 81.4882 27.4048Z" fill="white"/>
</g>
<path d="M84.0812 28.3808C83.9397 27.9513 83.6666 27.5777 83.3008 27.3131C82.9215 27.0392 82.4585 26.9071 81.9922 26.9398C81.5378 26.9447 81.0914 27.0605 80.6916 27.277C80.4938 27.3909 80.3165 27.5374 80.1673 27.7105C80.0289 27.8839 79.9082 28.0708 79.8071 28.2684C80.0827 27.9463 80.4221 27.6853 80.8036 27.5018C81.1853 27.347 81.5925 27.2653 82.0042 27.2609C82.407 27.23 82.8099 27.3209 83.1608 27.5218C83.5262 27.7375 83.8404 28.0307 84.0812 28.3808Z" fill="#0E004D"/>
<path d="M83.9782 27.899C83.8533 27.5046 83.6049 27.1611 83.2698 26.9197C82.9278 26.6801 82.5259 26.5411 82.1093 26.5183C81.6952 26.4879 81.2805 26.5697 80.9087 26.7551C80.5391 26.9396 80.2407 27.2416 80.0603 27.614C80.2859 27.285 80.5994 27.0262 80.9647 26.8675C81.3227 26.713 81.7128 26.6483 82.1013 26.6788C82.4912 26.7028 82.8692 26.8227 83.2018 27.028C83.5351 27.2418 83.8036 27.543 83.9782 27.899Z" fill="#DD857A"/>
<path d="M85.7026 38.5632C85.7026 38.5632 87.0273 39.7955 88.9042 38.5632C88.1158 40.1768 86.2869 39.9159 85.7026 38.5632Z" fill="#F7A192"/>
<path d="M85.1056 25.6713C85.1056 25.6713 86.3502 27.2085 86.4062 28.1718C86.4622 29.1351 85.4658 32.009 85.4137 32.6632C85.3617 33.3174 87.0145 33.9837 88.4952 33.8111C86.1901 34.2446 85.5178 34.1724 84.8935 33.197C84.2692 32.2217 85.4298 31.3547 86.0941 28.4769C86.1381 27.9149 85.1056 25.6713 85.1056 25.6713Z" fill="#F99585"/>
<path d="M88.4972 32.2617C88.4972 32.6952 87.8929 33.0645 87.1445 33.0645C86.3961 33.0645 85.7878 32.7153 85.7878 32.2617C85.7878 31.8082 86.3961 31.7239 87.1445 31.7239C87.8929 31.7239 88.4972 31.8322 88.4972 32.2617Z" fill="#FFBBB0"/>
<path d="M90.9521 9.90136C90.3078 8.36811 82.34 7.39678 77.6737 11.5952C73.7078 15.1634 71.7148 24.7963 72.3031 32.3662V32.3863C72.3752 36.6048 72.3472 43.2435 72.3472 43.2435C72.3472 43.2435 72.3472 40.5101 75.3886 36.3118C77.7538 33.0486 78.19 28.9345 78.262 27.2648C89.7876 26.2453 90.9521 15.3881 90.9521 15.3881C92.1527 19.5584 96.9831 25.3703 97.4913 28.786C97.7074 26.9838 99.5243 25.5389 100.445 27.7344C100.293 13.0481 93.5254 8.51662 90.9521 9.90136Z" fill="#020F21"/>
<path d="M91.2333 12.4905C91.0362 13.5705 91.0774 14.6807 91.354 15.743C91.6305 16.8053 92.1357 17.794 92.8341 18.6395C94.9471 21.3207 97.2762 24.7645 98.0366 27.3333C98.4768 26.7433 99.0971 26.4422 99.6374 26.7473C99.6694 25.5713 99.2932 23.3597 96.7079 20.7267C92.8901 16.8213 91.8896 15.8259 91.2333 12.4905Z" fill="#2D5FA1"/>
<path d="M83.6938 36.2348C83.6938 36.2348 86.1536 37.5859 90.2323 35.9236C88.5249 37.8397 85.4714 37.3893 83.6938 36.2348Z" fill="#D74F58"/>
<path d="M91.2172 13.261C91.2172 13.261 91.8615 20.1807 85.2623 25.2059C81.1443 27.7907 76.1419 27.6382 73.9448 27.3612C78.5248 27.2881 82.9228 25.5511 86.3228 22.4725C89.8885 19.2053 91.2172 13.261 91.2172 13.261Z" fill="#2D5FA1"/>
<path d="M91.0611 10.9611C91.0611 10.9611 91.009 17.6279 84.2298 21.7982C80.0518 23.8652 75.2935 23.2351 73.2205 22.7574C77.5994 23.1319 81.965 21.8996 85.5064 19.2896C89.2242 16.504 91.0611 10.9611 91.0611 10.9611Z" fill="#2D5FA1"/>
<path d="M78.2505 27.5098C78.2547 30.0728 77.667 32.6019 76.5337 34.8991C74.6408 38.7322 72.4597 42.3486 71.9795 44.5962C72.1076 42.0435 72.992 39.5791 74.6408 36.3922C76.2896 33.2053 77.3941 32.3423 78.2505 27.5098Z" fill="#201668"/>
<path d="M92.2615 32.0252C91.6046 32.0252 90.9624 31.8299 90.4162 31.4638C89.8699 31.0977 89.4442 30.5774 89.1928 29.9687C88.9414 29.36 88.8756 28.6901 89.0038 28.0439C89.1319 27.3977 89.4483 26.8041 89.9128 26.3382C90.3774 25.8723 90.9692 25.555 91.6135 25.4264C92.2579 25.2979 92.9257 25.3639 93.5327 25.616C94.1396 25.8682 94.6584 26.2952 95.0234 26.843C95.3883 27.3908 95.5831 28.0349 95.5831 28.6938C95.5821 29.577 95.2318 30.4238 94.6091 31.0483C93.9864 31.6728 93.1422 32.0242 92.2615 32.0252ZM92.2615 25.6835C91.6677 25.6827 91.0871 25.8586 90.5929 26.1889C90.0988 26.5192 89.7135 26.9891 89.4857 27.5391C89.2579 28.089 89.1979 28.6944 89.3133 29.2786C89.4286 29.8629 89.7142 30.3996 90.1338 30.821C90.5534 31.2424 91.0882 31.5295 91.6705 31.646C92.2528 31.7625 92.8565 31.7031 93.4052 31.4754C93.9539 31.2476 94.4229 30.8618 94.7529 30.3667C95.0829 29.8716 95.259 29.2894 95.259 28.6938C95.2579 27.8965 94.9419 27.132 94.3801 26.5678C93.8184 26.0036 93.0566 25.6856 92.2615 25.6835Z" fill="#0E004D"/>
<path d="M82.2281 32.0252C81.5711 32.0252 80.929 31.8299 80.3827 31.4638C79.8365 31.0977 79.4107 30.5774 79.1593 29.9687C78.9079 29.36 78.8422 28.6901 78.9703 28.0439C79.0985 27.3977 79.4148 26.8041 79.8794 26.3382C80.3439 25.8723 80.9358 25.555 81.5801 25.4264C82.2244 25.2979 82.8923 25.3639 83.4992 25.616C84.1062 25.8682 84.6249 26.2952 84.9899 26.843C85.3549 27.3908 85.5497 28.0349 85.5497 28.6938C85.5486 29.577 85.1984 30.4238 84.5757 31.0483C83.953 31.6728 83.1087 32.0242 82.2281 32.0252ZM82.2281 25.6835C81.6343 25.6827 81.0536 25.8586 80.5595 26.1889C80.0654 26.5192 79.6801 26.9891 79.4523 27.5391C79.2245 28.089 79.1645 28.6944 79.2798 29.2786C79.3952 29.8629 79.6807 30.3996 80.1003 30.821C80.5199 31.2424 81.0547 31.5295 81.6371 31.646C82.2194 31.7625 82.8231 31.7031 83.3718 31.4754C83.9205 31.2476 84.3895 30.8618 84.7194 30.3667C85.0494 29.8716 85.2255 29.2894 85.2255 28.6938C85.2245 27.8965 84.9085 27.132 84.3467 26.5678C83.7849 26.0036 83.0231 25.6856 82.2281 25.6835Z" fill="#0E004D"/>
<path d="M85.2323 27.6299L85.0242 27.3851C87.2172 25.4826 89.4263 27.3851 89.4263 27.3851L89.2142 27.6299C89.1461 27.5577 87.2132 25.9121 85.2323 27.6299Z" fill="#0E004D"/>
<path d="M80.2846 48.1403L77.6033 52.154C77.6033 52.154 80.8048 84.2197 88.9208 87.9846C97.4489 67.9721 98.7495 51.0783 98.7495 51.0783L95.8401 48.9269C95.8401 48.9269 96.2123 65.7285 87.4881 65.7285C79.084 65.7405 80.2846 48.1403 80.2846 48.1403Z" fill="#D74F58"/>
<path d="M59.5903 60.0811C59.5903 60.0811 73.321 50.0749 79.9722 48.1403C79.3279 60.4062 87.5758 80.4187 87.5758 80.4187L88.7044 162.195C88.7044 162.195 75.5621 163.487 65.4932 162.195C55.4243 160.902 58.6259 149.499 58.6259 149.499C58.6259 149.499 63.132 110.546 62.7038 96.9915C62.2756 83.4371 59.5903 60.0811 59.5903 60.0811Z" fill="#DAE7F9"/>
<path d="M59.5906 60.0811C59.5906 60.0811 73.3212 50.0749 79.9724 48.1403C79.3281 60.4062 87.5761 80.4187 87.5761 80.4187L88.7046 162.195C88.7046 162.195 75.5623 163.487 65.4934 162.195L66.1017 148.046C66.1017 148.046 71.5804 112.97 71.1522 99.4117C70.7239 85.8533 59.5906 60.0811 59.5906 60.0811Z" fill="white"/>
<path d="M115.903 60.0811C115.903 60.0811 102.156 50.0749 95.493 48.1403C96.1333 60.4062 86.5847 80.4187 86.5847 80.4187L87.7133 162.195C87.7133 162.195 99.8912 163.487 109.976 162.195C120.061 160.902 116.839 149.499 116.839 149.499C116.839 149.499 112.333 110.546 112.765 96.9915C113.198 83.4371 115.903 60.0811 115.903 60.0811Z" fill="#FDCFD2"/>
<path d="M115.903 60.0811C115.903 60.0811 102.156 50.0749 95.493 48.1403C96.1333 60.4062 86.5847 80.4187 86.5847 80.4187L87.7133 162.195C87.7133 162.195 99.8911 163.487 109.976 162.195L108.043 142.668C108.043 142.668 106.326 112.537 106.754 98.9823C107.183 85.4279 115.903 60.0811 115.903 60.0811Z" fill="white"/>
<path d="M94.728 46.7794C94.728 46.7794 98.7099 48.6338 99.4423 49.7536C100.175 50.8734 101.675 55.9307 101.967 60.6148C100.052 61.3241 98.1806 62.1498 96.3648 63.0872L101.567 63.8418C101.567 63.8418 94.6199 77.2638 85.4475 84.93C87.1323 78.2953 90.1138 71.6847 92.8511 61.9313C95.5884 52.1779 94.728 46.7794 94.728 46.7794Z" fill="#FDCFD2"/>
<path d="M80.8041 46.5548C80.8041 46.5548 76.8022 48.6339 76.0859 49.7658C75.3695 50.8977 73.8488 55.9429 73.5566 60.627C75.4725 61.3363 77.3435 62.162 79.1593 63.0994L73.9568 63.854C73.9568 63.854 79.5395 73.3626 88.712 81.0288C87.0271 74.3941 85.4104 71.7089 82.673 61.9435C79.9357 52.178 80.8041 46.5548 80.8041 46.5548Z" fill="#FDCFD2"/>
<path d="M88.7171 86.4997C88.7179 86.7969 88.6307 87.0877 88.4665 87.3352C88.3023 87.5827 88.0686 87.7757 87.795 87.8898C87.5213 88.0039 87.2201 88.034 86.9293 87.9762C86.6386 87.9184 86.3716 87.7754 86.162 87.5652C85.9524 87.355 85.8098 87.0871 85.7522 86.7956C85.6946 86.504 85.7246 86.2018 85.8383 85.9274C85.9521 85.6529 86.1446 85.4185 86.3913 85.2539C86.6381 85.0892 86.928 85.0018 87.2244 85.0026C87.6203 85.0026 87.9999 85.1603 88.2799 85.4411C88.5598 85.7218 88.7171 86.1026 88.7171 86.4997Z" fill="#D74F58"/>
<path d="M88.7171 101.07C88.7179 101.367 88.6307 101.658 88.4665 101.905C88.3023 102.152 88.0686 102.346 87.795 102.46C87.5213 102.574 87.2201 102.604 86.9293 102.546C86.6386 102.488 86.3716 102.345 86.162 102.135C85.9524 101.925 85.8098 101.657 85.7522 101.365C85.6946 101.074 85.7246 100.772 85.8383 100.497C85.9521 100.223 86.1446 99.9884 86.3913 99.8237C86.6381 99.6591 86.928 99.5716 87.2244 99.5724C87.4204 99.5724 87.6145 99.6111 87.7956 99.6864C87.9767 99.7616 88.1412 99.8719 88.2799 100.011C88.4185 100.15 88.5284 100.315 88.6034 100.497C88.6785 100.678 88.7171 100.873 88.7171 101.07Z" fill="#D74F58"/>
<path d="M88.7171 117.69C88.7179 117.987 88.6307 118.278 88.4665 118.526C88.3023 118.773 88.0686 118.966 87.795 119.08C87.5213 119.194 87.2201 119.225 86.9293 119.167C86.6386 119.109 86.3716 118.966 86.162 118.756C85.9524 118.546 85.8098 118.278 85.7522 117.986C85.6946 117.695 85.7246 117.392 85.8383 117.118C85.9521 116.843 86.1446 116.609 86.3913 116.444C86.6381 116.28 86.928 116.192 87.2244 116.193C87.6199 116.194 87.999 116.352 88.2787 116.633C88.5584 116.913 88.716 117.294 88.7171 117.69Z" fill="#D74F58"/>
<path d="M88.7171 151.265C88.7179 151.563 88.6307 151.853 88.4665 152.101C88.3023 152.348 88.0686 152.541 87.795 152.656C87.5213 152.77 87.2201 152.8 86.9293 152.742C86.6386 152.684 86.3716 152.541 86.162 152.331C85.9524 152.121 85.8098 151.853 85.7522 151.561C85.6946 151.27 85.7246 150.968 85.8383 150.693C85.9521 150.419 86.1446 150.184 86.3913 150.02C86.6381 149.855 86.928 149.768 87.2244 149.768C87.6203 149.768 87.9999 149.926 88.2799 150.207C88.5598 150.488 88.7171 150.868 88.7171 151.265Z" fill="#D74F58"/>
<path d="M76.9788 89.249L83.4259 130.835L113.628 125.581L107.165 85.0024L76.9788 89.249Z" fill="#235596"/>
<path d="M125.671 86.564C125.671 86.564 128.472 96.514 129.125 101.656C129.777 106.797 126.783 109.037 121.657 111.16C116.531 113.283 97.7694 114.921 95.0921 115.146C92.4149 115.371 84.467 119.918 82.462 119.99C80.4571 120.063 78.4601 119.469 77.9278 118.277C77.3956 117.084 77.9278 116.358 77.9278 116.358C77.5141 116.063 77.2273 115.622 77.1255 115.124C77.0237 114.625 77.1145 114.107 77.3796 113.673C76.5992 112.22 77.4636 111.265 77.4636 111.265C76.9914 109.892 79.0644 108.704 79.9928 108.676C80.1569 109.406 80.245 109.936 80.245 109.936C81.0572 109.852 81.8606 109.698 82.6461 109.474C83.5666 109.165 81.7537 108.383 80.8613 108.33C79.9688 108.278 78.8603 108.636 77.9639 108.134C77.0674 107.632 76.6272 106.316 77.3236 106.231C78.0199 106.147 78.9243 106.259 81.1134 106.039C83.3025 105.818 84.9592 106.231 87.5765 107.243C90.1938 108.254 94.9641 107.243 98.974 105.846C102.984 104.449 111.84 101.029 114.694 99.4882C116.41 98.553 113.945 91.1316 113.945 91.1316L125.671 86.564Z" fill="#FFB0A0"/>
<path d="M77.2509 106.207C77.1415 106.436 77.0972 106.692 77.1228 106.945C77.1868 107.302 78.7956 107.206 79.1238 107.218C79.4519 107.23 79.2998 106.484 79.524 106.167C78.7683 106.07 78.0027 106.084 77.2509 106.207Z" fill="#FFC2B8"/>
<path opacity="0.69" d="M79.9928 108.683C79.0764 108.711 76.9914 109.887 77.4636 111.272C77.4636 111.272 76.5992 112.219 77.3795 113.68C77.1145 114.114 77.0236 114.633 77.1254 115.132C77.2272 115.63 77.514 116.071 77.9278 116.366C77.9278 116.366 77.4075 117.092 77.9278 118.284C78.384 119.332 79.9928 119.922 81.7416 119.994C80.337 119.918 79.9168 119.565 79.6526 118.702C79.3685 117.758 80.2129 117.546 79.8527 117.096C78.7922 115.776 80.0408 115.214 79.6526 114.688C79.0844 113.925 79.0563 113.484 79.3205 113.026C79.5486 112.625 79.6927 112.597 79.4846 111.858C79.1964 110.831 80.2449 109.944 80.2449 109.944C80.2449 109.944 80.1569 109.414 79.9928 108.683Z" fill="#F9A395"/>
<path d="M77.4849 111.268C77.9184 111.547 78.4003 111.742 78.9055 111.842C79.6179 111.946 79.6579 112.203 79.2297 112.203C78.8015 112.203 77.761 111.822 77.4849 111.268Z" fill="#F29288"/>
<path d="M77.3792 113.677C77.7863 114.13 78.3304 114.436 78.9279 114.548C79.6322 114.688 79.6763 114.909 79.2521 114.909C78.8279 114.909 77.6033 114.391 77.3792 113.677Z" fill="#F29288"/>
<path d="M77.927 116.358C78.221 116.709 78.6378 116.933 79.0916 116.984C79.8079 117.032 79.8679 117.237 79.4437 117.237C79.1302 117.275 78.8129 117.209 78.5394 117.051C78.266 116.893 78.0511 116.649 77.927 116.358Z" fill="#F29288"/>
<path d="M127.679 94.3827C126.715 90.3048 125.678 86.564 125.678 86.564L113.952 91.1356C114.506 92.8393 114.925 94.5839 115.205 96.3535C118.951 94.5553 123.333 93.9613 127.679 94.3827Z" fill="#F9A395"/>
<path d="M113.944 99.8771C117.28 98.7005 120.898 98.5939 124.297 99.5721C122.524 97.5371 117.27 97.22 113.944 99.8771Z" fill="#F9A395"/>
<path d="M111.5 97.1518L110.904 91.7333C110.904 91.7333 110.212 67.695 115.83 60.0809C115.83 60.0809 122.61 77.34 128.797 88.2855C126.796 88.8875 124.763 90.0515 119.292 92.6404L111.5 97.1518Z" fill="white"/>
<path d="M56.1598 30.1505C56.1598 30.1505 56.3257 35.9945 56.7708 38.6729C57.2159 41.3514 59.579 42.8367 59.579 42.8367C59.579 42.8367 54.4968 47.9056 50.0053 48.5589C45.5139 49.2123 40.46 42.439 40.46 42.439C40.46 42.439 42.819 41.8668 43.1427 38.8474C43.4664 35.8281 43.2236 30.7633 43.2236 30.7633L56.1598 30.1505Z" fill="#FFB0A0"/>
<path d="M56.3423 34.1763C56.2168 32.0457 56.1602 30.1505 56.1602 30.1505L43.2119 30.7633C43.2119 30.7633 43.4506 35.7063 43.1431 38.7379C46.2426 35.9376 49.2126 38.7379 53.6636 36.5302C54.4486 36.1487 56.0186 34.8987 56.3423 34.1763Z" fill="#F99585"/>
<path d="M38.6721 9.61179C38.6721 9.61179 38.9959 16.9573 38.4536 20.4921C37.9114 24.0269 40.6225 30.7636 41.8162 31.9811C43.0098 33.1986 46.6961 34.7002 49.0996 35.4104C51.5031 36.1206 55.501 33.2311 56.9657 31.9284C58.4305 30.6256 60.0005 22.7323 60.1098 21.2104C60.219 19.6885 58.7542 13.0532 59.0253 9.18973C59.2964 5.32623 51.4344 4.40094 47.2019 5.05432C42.9694 5.70771 38.6236 8.19951 38.6721 9.61179Z" fill="#FFB0A0"/>
<path d="M52.6332 20.0209C52.4561 19.8011 52.3283 19.5455 52.2585 19.2717C52.1886 18.9979 52.1784 18.7122 52.2285 18.4341C52.3742 17.4114 52.6574 16.5714 54.4257 16.8108C56.194 17.0502 57.2582 17.8132 56.9183 20.5323C56.5581 20.0777 55.5061 19.9357 54.7818 19.8423C54.0611 19.8194 53.3402 19.8793 52.6332 20.0209Z" fill="#F7A192"/>
<path d="M46.4267 20.0209C46.6038 19.8011 46.7316 19.5455 46.8014 19.2717C46.8712 18.9979 46.8815 18.7122 46.8314 18.4341C46.6857 17.4114 46.4024 16.5714 44.6342 16.8108C42.8659 17.0502 41.8017 17.8132 42.1416 20.5323C42.5018 20.0777 43.5538 19.9357 44.2781 19.8423C44.9988 19.8194 45.7197 19.8793 46.4267 20.0209Z" fill="#F7A192"/>
<path d="M43.6599 31.9812C42.4662 30.784 39.4072 23.9701 40.2974 20.5044C41.8309 14.5184 41.0621 12.2214 41.0621 12.2214C41.0136 10.8091 44.7969 5.70781 49.0294 5.05442C49.6383 4.96478 50.2515 4.90788 50.8665 4.88398C49.6364 4.82473 48.4036 4.88179 47.1843 5.05442C42.9558 5.70781 38.6222 8.21178 38.6869 9.62407C38.6869 9.62407 39.0106 16.9696 38.4684 20.5044C37.9262 24.0391 40.6211 30.7637 41.8147 31.9812C43.0084 33.1987 46.6947 34.7003 49.0982 35.4105C49.6929 35.5627 50.3162 35.5627 50.911 35.4105C48.5074 34.6759 44.8455 33.1622 43.6599 31.9812Z" fill="#F7A192"/>
<path d="M60.2554 20.5116C60.2554 20.5116 59.4987 18.6123 58.6369 16.7779C57.9846 15.3266 57.4934 13.8078 57.1721 12.2489C53.3887 12.1271 51.1916 11.7173 47.651 13.7586C44.1104 15.7999 41.5086 13.4299 41.5086 13.4299C41.5086 17.3907 38.7976 20.9539 38.7976 20.9539C38.7976 20.9539 37.3368 16.084 37.5513 14.0021C37.7657 11.9202 38.7045 6.21015 42.4069 5.11035C46.1093 4.01055 52.4136 3.96591 54.8131 5.11035C57.2125 6.25479 59.6687 8.86022 59.693 10.2482C59.7172 11.6361 60.2554 20.5116 60.2554 20.5116Z" fill="#F7A192"/>
<path d="M38.8049 20.9546C38.8049 20.8734 38.21 19.0228 37.069 18.9254C35.9279 18.828 35.3331 20.6096 35.8551 22.7037C36.377 24.7978 37.6921 26.4049 38.3881 26.4576C39.0841 26.5104 39.4604 24.9358 39.4604 24.9358L38.8049 20.9546Z" fill="#F7A192"/>
<path d="M37.3725 25.1955C37.2535 24.9087 37.0835 24.646 36.8708 24.4203C36.4661 23.9577 36.3407 22.4967 36.3285 21.6647C36.3174 20.987 36.5277 20.3242 36.9274 19.7776C37.158 19.5585 38.1049 20.9424 38.1737 21.3685C38.2425 21.7946 38.5176 22.4967 38.1737 23.146C37.8297 23.7953 37.9754 24.0145 38.2465 24.2539C38.5176 24.4934 38.3194 24.8992 38.1737 25.1021C38.028 25.305 37.8297 24.9357 37.587 24.5137C37.3442 24.0916 37.7812 23.0486 37.8864 22.8904C37.9916 22.7321 37.1742 22.3384 36.8869 23.702C36.8586 22.9837 37.3887 21.7459 38.0604 22.4845C37.8459 21.1737 37.4696 20.5852 37.1904 20.3174C36.9112 20.0495 36.7251 20.918 36.6199 21.7824C36.5147 22.6469 36.5794 23.7548 36.8465 24.0388C37.1111 24.3769 37.2915 24.7734 37.3725 25.1955Z" fill="#ED867C"/>
<path d="M59.894 20.9546C59.894 20.8734 60.4889 19.0228 61.6299 18.9254C62.771 18.828 63.3658 20.6096 62.8438 22.7037C62.3219 24.7978 61.0068 26.4049 60.3108 26.4576C59.6148 26.5104 59.2385 24.9358 59.2385 24.9358L59.894 20.9546Z" fill="#FFB0A0"/>
<path d="M61.376 25.1955C61.495 24.9087 61.6651 24.646 61.8778 24.4203C62.2824 23.9577 62.4079 22.4967 62.42 21.6647C62.4311 20.987 62.2208 20.3242 61.8212 19.7776C61.5905 19.5585 60.6437 20.9424 60.5708 21.3685C60.498 21.7946 60.2269 22.4967 60.5708 23.146C60.9148 23.7953 60.7731 24.0145 60.502 24.2539C60.2309 24.4934 60.4292 24.8992 60.5708 25.1021C60.7124 25.305 60.9188 24.9357 61.1616 24.5137C61.4044 24.0916 60.9674 23.0486 60.8622 22.8904C60.757 22.7321 61.5743 22.3384 61.8616 23.702C61.8899 22.9837 61.3599 21.7459 60.6882 22.4845C60.9026 21.1737 61.2789 20.5852 61.5581 20.3174C61.8373 20.0495 62.0235 20.918 62.1287 21.7824C62.2339 22.6469 62.1691 23.7548 61.9021 24.0388C61.6359 24.376 61.4554 24.7729 61.376 25.1955Z" fill="#F99585"/>
<path d="M40.2426 10.756C40.2426 10.9183 39.8097 19.4286 39.1703 23.1947C38.9154 20.3742 37.742 19.1039 36.7911 18.9619C36.4593 17.3386 34.602 8.57671 38.7778 6.01999C38.4015 3.08584 44.4185 0.362722 50.7106 0.634628C57.0027 0.906533 60.527 4.66046 61.2311 9.44925C61.6597 12.5939 61.7951 15.7717 61.6357 18.9416C61.6357 18.9416 60.3814 19.6883 59.7461 23.5072C60.26 18.832 58.7992 16.5756 58.4189 15.0497C58.0385 13.5238 57.4356 10.4719 57.4356 10.4719C56.6263 9.3275 51.6331 8.44279 47.8376 10.2C45.4393 11.2325 42.765 11.4283 40.2426 10.756Z" fill="#0E004D"/>
<path d="M39.7677 9.35613C39.7677 9.35613 40.6781 11.4096 44.1458 11.2189C47.6136 11.0281 51.931 8.66216 55.4028 11.2189C53.3796 10.6061 50.9801 10.3626 46.6141 12.1279C42.2481 13.8933 39.8891 11.7465 39.4561 10.4153C39.0232 9.08422 39.7677 9.35613 39.7677 9.35613Z" fill="#0E004D"/>
<path d="M58.9494 11.6895C58.9494 11.6895 54.5874 8.28864 49.9988 9.66034C45.4102 11.032 42.2096 12.9922 39.3933 9.43713C41.6755 11.0199 44.9004 10.8048 47.7207 9.14493C50.541 7.48509 56.6429 6.81953 58.9494 11.6895Z" fill="#2D5FA1"/>
<path d="M38.9639 7.70012C38.9639 7.70012 41.1327 10.338 43.601 9.95653C46.0693 9.57505 47.8011 7.64736 50.6214 7.70012C49.7272 7.31864 46.6236 7.61896 44.8958 8.65788C43.168 9.6968 40.1697 8.84862 38.9639 7.70012Z" fill="#2D5FA1"/>
<path d="M52.6915 17.1847C52.6915 17.1847 54.48 16.6774 55.6817 17.4525C56.8835 18.2276 57.0211 18.5929 57.1829 18.3697C57.3448 18.1465 56.4951 16.5719 54.9372 16.1254C53.3794 15.679 52.4851 16.166 52.2302 16.5313C51.9753 16.8965 52.2545 17.2171 52.6915 17.1847Z" fill="#0E004D"/>
<path d="M46.3426 17.1842C46.3426 17.1842 44.5541 16.6769 43.3523 17.452C42.1506 18.2271 42.013 18.5924 41.8511 18.3692C41.6893 18.146 42.539 16.5714 44.0969 16.1249C45.6547 15.6785 46.5489 16.1655 46.7998 16.5308C47.0507 16.896 46.7796 17.2166 46.3426 17.1842Z" fill="#0E004D"/>
<path d="M52.6311 20.0209C52.8675 19.6659 53.1981 19.3843 53.5857 19.2079C53.9732 19.0315 54.4022 18.9673 54.8242 19.0225C55.2434 19.0514 55.648 19.1888 55.9984 19.4214C56.3487 19.654 56.6329 19.9738 56.8231 20.3496C56.8231 20.3496 55.7711 20.4024 54.8242 20.3496C54.087 20.2869 53.3544 20.1771 52.6311 20.0209Z" fill="white"/>
<mask id="mask2_796_22800" style="mask-type:luminance" maskUnits="userSpaceOnUse" x="52" y="19" width="5" height="2">
<path d="M52.6335 20.0216C52.8699 19.6667 53.2006 19.3851 53.5881 19.2087C53.9757 19.0322 54.4047 18.968 54.8267 19.0233C55.2459 19.0521 55.6504 19.1895 56.0008 19.4221C56.3512 19.6547 56.6354 19.9746 56.8256 20.3503C56.8256 20.3503 55.7735 20.4031 54.8267 20.3503C54.0894 20.2876 53.3569 20.1778 52.6335 20.0216Z" fill="white"/>
</mask>
<g mask="url(#mask2_796_22800)">
<path d="M55.6896 19.583C55.7005 19.7547 55.6604 19.9257 55.5743 20.0744C55.4882 20.2231 55.36 20.3429 55.206 20.4185C55.052 20.4941 54.879 20.5221 54.7091 20.499C54.5392 20.4759 54.3799 20.4027 54.2515 20.2887C54.1231 20.1748 54.0313 20.0251 53.9878 19.8588C53.9443 19.6924 53.951 19.5169 54.0071 19.3544C54.0632 19.1918 54.1661 19.0497 54.3028 18.9459C54.4395 18.8421 54.6039 18.7814 54.7751 18.7714C55.0035 18.758 55.2279 18.8359 55.3993 18.988C55.5706 19.1401 55.675 19.354 55.6896 19.583Z" fill="#0E004D"/>
<path d="M55.2419 19.608C55.2416 19.6867 55.2185 19.7635 55.1754 19.8293C55.1324 19.895 55.0712 19.9467 54.9994 19.9782C54.9275 20.0097 54.8481 20.0196 54.7708 20.0067C54.6934 19.9938 54.6215 19.9586 54.5637 19.9054C54.5059 19.8523 54.4648 19.7834 54.4453 19.7073C54.4258 19.6311 54.4288 19.5509 54.4539 19.4764C54.4791 19.4019 54.5252 19.3363 54.5868 19.2876C54.6484 19.239 54.7227 19.2093 54.8008 19.2022C54.8569 19.1971 54.9135 19.2039 54.9669 19.222C55.0203 19.2401 55.0693 19.2691 55.1108 19.3074C55.1523 19.3456 55.1854 19.392 55.208 19.4438C55.2306 19.4956 55.2421 19.5515 55.2419 19.608Z" fill="#05002D"/>
<path d="M55.3658 19.4209C55.3669 19.4449 55.3633 19.4689 55.3551 19.4915C55.3469 19.514 55.3344 19.5348 55.3183 19.5525C55.3021 19.5702 55.2826 19.5845 55.2609 19.5947C55.2392 19.6049 55.2158 19.6106 55.1918 19.6117C55.168 19.6139 55.144 19.6112 55.1212 19.6037C55.0985 19.5962 55.0775 19.584 55.0597 19.568C55.0418 19.552 55.0275 19.5325 55.0175 19.5107C55.0075 19.4889 55.0021 19.4652 55.0017 19.4412C55 19.4172 55.0031 19.3931 55.0108 19.3703C55.0184 19.3475 55.0305 19.3265 55.0463 19.3084C55.0621 19.2903 55.0813 19.2755 55.1028 19.2649C55.1243 19.2542 55.1477 19.248 55.1716 19.2464C55.2203 19.2442 55.2679 19.2612 55.3043 19.2939C55.3406 19.3265 55.3627 19.3721 55.3658 19.4209Z" fill="white"/>
</g>
<path d="M52.6311 20.021C52.8358 19.612 53.1625 19.2772 53.5658 19.0632C53.9857 18.8463 54.467 18.7804 54.9294 18.8765C55.3834 18.9499 55.8134 19.1308 56.1838 19.4041C56.3652 19.5473 56.5212 19.7202 56.6451 19.9155C56.7586 20.1069 56.8522 20.3095 56.9243 20.5202C56.6943 20.1593 56.3927 19.8498 56.0381 19.6111C55.6759 19.4062 55.2798 19.2687 54.8687 19.2053C54.4636 19.114 54.0404 19.148 53.6548 19.3027C53.2672 19.4676 52.9184 19.7123 52.6311 20.021Z" fill="#0E004D"/>
<path d="M52.8052 19.5543C52.9866 19.1777 53.2847 18.8702 53.6549 18.6777C54.0289 18.4846 54.4498 18.4016 54.8688 18.4383C55.2884 18.4631 55.693 18.6036 56.0382 18.8441C56.3839 19.0803 56.6404 19.4262 56.7666 19.8262C56.5864 19.462 56.3055 19.1577 55.9573 18.9496C55.6199 18.7442 55.2383 18.6232 54.8445 18.5965C54.4516 18.5633 54.0567 18.6289 53.6954 18.7873C53.3348 18.9573 53.0271 19.2224 52.8052 19.5543Z" fill="#DD857A"/>
<path d="M46.4243 20.0207C46.1889 19.6658 45.859 19.3841 45.4721 19.2076C45.0852 19.0312 44.6567 18.967 44.2352 19.0224C43.816 19.0512 43.4115 19.1886 43.0611 19.4212C42.7107 19.6539 42.4265 19.9737 42.2363 20.3495C42.2363 20.3495 43.2884 20.4022 44.2352 20.3495C44.9712 20.2869 45.7024 20.1771 46.4243 20.0207Z" fill="white"/>
<mask id="mask3_796_22800" style="mask-type:luminance" maskUnits="userSpaceOnUse" x="42" y="19" width="5" height="2">
<path d="M46.4243 20.0207C46.1889 19.6658 45.859 19.3841 45.4721 19.2076C45.0852 19.0312 44.6567 18.967 44.2352 19.0224C43.816 19.0512 43.4115 19.1886 43.0611 19.4212C42.7107 19.6539 42.4265 19.9737 42.2363 20.3495C42.2363 20.3495 43.2884 20.4022 44.2352 20.3495C44.9712 20.2869 45.7024 20.1771 46.4243 20.0207Z" fill="white"/>
</mask>
<g mask="url(#mask3_796_22800)">
<path d="M43.3733 19.5828C43.3624 19.7544 43.4025 19.9254 43.4886 20.0742C43.5747 20.2229 43.7029 20.3426 43.8569 20.4182C44.0109 20.4938 44.1839 20.5218 44.3538 20.4987C44.5237 20.4756 44.683 20.4025 44.8114 20.2885C44.9398 20.1745 45.0316 20.0249 45.0751 19.8585C45.1186 19.6922 45.1119 19.5166 45.0558 19.3541C44.9997 19.1916 44.8968 19.0494 44.7601 18.9456C44.6234 18.8419 44.459 18.7811 44.2878 18.7711C44.0594 18.7578 43.835 18.8357 43.6636 18.9878C43.4923 19.1398 43.3879 19.3538 43.3733 19.5828Z" fill="#0E004D"/>
<path d="M43.8237 19.6072C43.8186 19.6635 43.8253 19.7202 43.8433 19.7738C43.8614 19.8273 43.8904 19.8765 43.9285 19.9181C43.9666 19.9597 44.0129 19.9929 44.0646 20.0156C44.1162 20.0382 44.172 20.0498 44.2283 20.0496C44.3067 20.0493 44.3833 20.0261 44.4489 19.9829C44.5144 19.9397 44.566 19.8784 44.5974 19.8063C44.6288 19.7343 44.6387 19.6546 44.6258 19.5771C44.6129 19.4995 44.5778 19.4273 44.5248 19.3694C44.4718 19.3114 44.4032 19.2702 44.3272 19.2506C44.2513 19.2311 44.1713 19.2341 44.097 19.2593C44.0228 19.2845 43.9574 19.3308 43.9088 19.3926C43.8603 19.4543 43.8307 19.5289 43.8237 19.6072Z" fill="#05002D"/>
<path d="M43.6958 19.4203C43.6935 19.4681 43.7101 19.5148 43.7419 19.5505C43.7736 19.5862 43.8181 19.6079 43.8657 19.611C43.8897 19.6133 43.914 19.6106 43.9369 19.6031C43.9599 19.5956 43.9811 19.5836 43.9993 19.5676C44.0174 19.5517 44.0322 19.5322 44.0426 19.5104C44.053 19.4885 44.0589 19.4648 44.0599 19.4406C44.0622 19.3924 44.0458 19.3452 44.0141 19.3089C43.9824 19.2725 43.9379 19.2499 43.89 19.2458C43.8413 19.2436 43.7936 19.2606 43.7573 19.2932C43.721 19.3259 43.6989 19.3715 43.6958 19.4203Z" fill="white"/>
</g>
<path d="M46.4259 20.0213C46.2227 19.6126 45.8973 19.2777 45.4952 19.0635C45.0752 18.8469 44.594 18.7811 44.1316 18.8768C43.6776 18.9502 43.2476 19.1311 42.8772 19.4044C42.6948 19.5464 42.5386 19.7195 42.4159 19.9158C42.3008 20.1063 42.2072 20.3091 42.1367 20.5204C42.3667 20.1596 42.6684 19.8501 43.0229 19.6114C43.3845 19.4052 43.7809 19.2677 44.1923 19.2055C44.5974 19.1143 45.0206 19.1482 45.4062 19.3029C45.7931 19.4669 46.1408 19.7118 46.4259 20.0213Z" fill="#0E004D"/>
<path d="M46.2537 19.5546C46.0707 19.1777 45.7713 18.8702 45.3999 18.678C45.0261 18.4843 44.6051 18.4012 44.186 18.4385C43.7652 18.4635 43.3592 18.6039 43.0125 18.8443C42.6679 19.0817 42.4117 19.4272 42.2842 19.8265C42.4667 19.464 42.7471 19.1602 43.0935 18.9499C43.4308 18.7445 43.8124 18.6234 44.2062 18.5968C44.6004 18.5639 44.9966 18.6294 45.3594 18.7875C45.7208 18.9579 46.0297 19.2229 46.2537 19.5546Z" fill="#DD857A"/>
<path d="M47.968 30.4229C47.968 30.4229 49.3114 31.6687 51.2051 30.4229C50.408 32.0583 48.5588 31.7905 47.968 30.4229Z" fill="#F7A192"/>
<path d="M47.3625 17.3912C47.3625 17.3912 48.6209 18.9415 48.6775 19.9155C48.7342 20.8895 47.7266 23.7952 47.674 24.4567C47.6214 25.1182 49.2926 25.7919 50.7897 25.6174C48.459 26.0598 47.7833 25.9826 47.148 25.0005C46.5127 24.0184 47.6902 23.1378 48.3619 20.2239C48.4267 19.6558 47.3625 17.3912 47.3625 17.3912Z" fill="#F99585"/>
<path d="M50.7905 24.0552C50.7905 24.4894 50.1795 24.8425 49.4228 24.8425C48.6662 24.8425 48.0552 24.4894 48.0552 24.0552C48.0552 23.621 48.6662 23.5073 49.4228 23.5073C50.1795 23.5073 50.7905 23.6169 50.7905 24.0552Z" fill="#FFBBB0"/>
<path d="M46.4863 27.4802C46.4863 27.4802 50.5651 28.0078 52.7946 27.4802C52.0015 30.3251 47.9471 31.6968 46.4863 27.4802Z" fill="#752727"/>
<path d="M51.5705 29.3595C49.5473 28.3855 48.1958 29.0795 47.6941 29.4325C48.8918 30.5039 50.4497 30.2848 51.5705 29.3595Z" fill="#B23030"/>
<path d="M52.7293 27.4927C50.7304 27.9431 47.3314 27.582 46.6233 27.4927C46.8118 27.7275 47.0673 27.8988 47.3557 27.9837C48.7077 28.2083 50.0837 28.2492 51.4466 28.1055C51.9279 28.0422 52.3769 27.8277 52.7293 27.4927Z" fill="white"/>
<path d="M56.3522 23.0166C55.5187 23.0166 54.4059 22.976 52.9209 22.8705C51.6584 22.7812 51.4561 21.933 51.4278 21.1173C51.4035 20.4517 51.4278 19.8348 51.4278 19.425V19.0557C51.4177 18.8994 51.4398 18.7427 51.4927 18.5954C51.5456 18.4481 51.6282 18.3133 51.7353 18.1994C51.9631 17.9801 52.2653 17.8554 52.581 17.8503C52.7995 17.8503 57.8979 17.9924 58.8528 18.2562C58.9427 18.3085 59.0201 18.38 59.0795 18.4655C59.1389 18.551 59.179 18.6486 59.1968 18.7513C59.476 19.7253 59.2777 21.9979 58.9459 22.5417C58.8488 22.7041 58.6546 23.0166 56.3522 23.0166ZM52.5648 18.1831C52.3364 18.1905 52.1182 18.2798 51.9498 18.4347C51.873 18.5183 51.8146 18.6172 51.7784 18.7248C51.7422 18.8325 51.7289 18.9466 51.7394 19.0597C51.7394 19.1449 51.7394 19.2748 51.7394 19.4371C51.7394 19.843 51.7394 20.4517 51.7394 21.1132C51.7717 21.9736 51.9781 22.4849 52.933 22.5539C58.0557 22.9192 58.5979 22.489 58.6465 22.3997C58.9338 21.9289 59.1118 19.7415 58.8609 18.869C58.7922 18.6377 58.7234 18.593 58.7112 18.589C57.8413 18.3211 52.7145 18.1831 52.5648 18.1831Z" fill="#0E004D"/>
<path d="M42.9127 23.0163C40.6104 23.0163 40.4161 22.7038 40.3312 22.5618C39.9994 22.022 39.8011 19.7453 40.0803 18.7713C40.097 18.6734 40.1336 18.58 40.1879 18.4969C40.2422 18.4138 40.313 18.3428 40.3959 18.2884C41.3832 17.9921 46.4654 17.8542 46.6961 17.8501C47.0118 17.8552 47.3139 17.9798 47.5418 18.1991C47.6489 18.313 47.7315 18.4478 47.7844 18.5952C47.8373 18.7425 47.8594 18.8992 47.8493 19.0554V19.4288C47.8493 19.8346 47.8493 20.4515 47.8493 21.117C47.821 21.9287 47.6187 22.7809 46.3562 22.8702C44.859 22.9757 43.7463 23.0163 42.9127 23.0163ZM40.5173 18.5887C40.4572 18.6697 40.4145 18.7623 40.3919 18.8606C40.145 19.7331 40.319 21.9206 40.6063 22.3913C40.663 22.4806 41.1971 22.9108 46.3198 22.5455C47.2747 22.4766 47.4811 21.9652 47.5337 21.1049C47.558 20.4474 47.5337 19.8387 47.5337 19.4328C47.5337 19.2664 47.5337 19.1366 47.5337 19.0514C47.5422 18.938 47.5275 18.8242 47.4907 18.7167C47.4538 18.6093 47.3955 18.5105 47.3192 18.4264C47.1508 18.2714 46.9326 18.1821 46.7042 18.1748C46.5585 18.1748 41.4439 18.3209 40.5213 18.5806L40.5173 18.5887Z" fill="#0E004D"/>
<path d="M51.5071 18.9048C51.4869 18.9048 49.4596 17.9836 47.7399 18.9048L47.5862 18.6167C49.4475 17.6224 51.5516 18.572 51.6325 18.6167L51.5071 18.9048Z" fill="#0E004D"/>
<path d="M42.4674 41.2014L39.7563 45.2597C39.7563 45.2597 42.9934 77.6814 51.1995 81.4881C59.8222 61.2534 61.1414 44.1721 61.1414 44.1721L58.1956 41.9968C58.1956 41.9968 53.777 47.9382 49.7509 47.4025C45.7247 46.8668 42.4674 41.2014 42.4674 41.2014Z" fill="#D74F58"/>
<path d="M49.168 47.4021L45.4899 50.2186C45.4899 50.2186 47.5657 54.5001 47.6871 54.5812C47.8085 54.6624 43.7014 73.5943 43.7014 73.5943L49.168 78.0016L54.0237 72.5351L51.3409 54.3377L54.0237 49.6058L49.168 47.4021Z" fill="#2D5FA1"/>
<path d="M21.5604 53.275C21.5604 53.275 35.4435 43.1576 42.1685 41.2015C41.5171 53.6037 49.8566 73.8383 49.8566 73.8383L50.9936 156.522C50.9936 156.522 37.7054 157.829 27.5247 156.522C17.3441 155.215 20.5812 143.686 20.5812 143.686C20.5812 143.686 25.1374 104.3 24.7044 90.595C24.2715 76.8902 21.5604 53.275 21.5604 53.275Z" fill="#F0F6F7"/>
<path d="M21.561 53.2748C21.561 53.2748 35.4441 43.1575 42.1691 41.2014C41.5177 53.6036 49.8572 73.8382 49.8572 73.8382L50.9943 156.522C50.9943 156.522 37.706 157.829 27.5254 156.522L28.1404 142.216C28.1404 142.216 33.6799 106.751 33.2469 93.0421C32.814 79.3331 21.561 53.2748 21.561 53.2748Z" fill="white"/>
<path d="M78.4799 53.2747C78.4799 53.2747 64.613 43.1574 57.8718 41.2013C58.5233 53.6034 48.8687 73.8381 48.8687 73.8381L50.0057 156.522C50.0057 156.522 62.3188 157.829 72.5156 156.522C82.7124 155.215 79.4551 143.685 79.4551 143.685C79.4551 143.685 74.9029 104.3 75.3359 90.5948C75.7689 76.8899 78.4799 53.2747 78.4799 53.2747Z" fill="#F0F6F7"/>
<path d="M78.4799 53.2747C78.4799 53.2747 64.613 43.1574 57.8718 41.2013C58.5233 53.6034 48.8687 73.8381 48.8687 73.8381L50.0057 156.522C50.0057 156.522 62.3188 157.829 72.5156 156.522L70.5612 136.778C70.5612 136.778 68.8253 106.313 69.2623 92.6077C69.6993 78.9029 78.4799 53.2747 78.4799 53.2747Z" fill="white"/>
<path d="M56.6852 38.1047C56.6852 38.1047 55.4025 44.1922 49.7497 46.9599C47.0751 46.197 43.0125 40.0608 43.1542 38.1047C42.5731 39.4016 41.7921 40.5986 40.8396 41.6517C40.8396 41.6517 40.6252 48.2627 44.6392 52.1262C46.6624 50.2756 49.7497 47.8284 49.7497 47.8284C49.7497 47.8284 53.529 51.3104 54.1279 52.9987C57.7696 48.5346 59.1656 41.6355 59.1656 41.6355L56.6852 38.1047Z" fill="#D74F58"/>
<path d="M57.7334 39.5984C57.7334 39.5984 61.1121 41.7006 61.8526 42.845C62.5931 43.9895 64.1145 49.0907 64.4099 53.8268C62.4726 54.5436 60.5808 55.3785 58.745 56.3267L64.0053 57.0896C64.0053 57.0896 56.9848 70.6606 47.7065 78.4119C49.4141 71.7036 52.4286 65.0195 55.1923 55.1579C57.956 45.2962 57.7334 39.5984 57.7334 39.5984Z" fill="#F0F6F7"/>
<path d="M42.3594 39.5984C42.3594 39.5984 38.9766 41.7006 38.2402 42.845C37.5037 43.9895 35.9782 49.0907 35.6829 53.8268C37.62 54.544 39.5118 55.3788 41.3478 56.3267L36.0875 57.0896C36.0875 57.0896 41.7524 66.7037 51.0064 74.4551C49.3029 67.7467 47.6682 65.0317 44.9005 55.1579C42.1328 45.2841 42.3594 39.5984 42.3594 39.5984Z" fill="#F0F6F7"/>
<path d="M32.0795 114.174C32.0795 114.174 32.5933 115.48 35.0212 116.609C37.449 117.737 38.7155 118.346 39.9375 120.216C35.4622 121.434 29.1256 123.601 29.1256 123.601C28.1468 122.465 27.3085 121.214 26.629 119.875C25.8157 118.09 32.0795 114.174 32.0795 114.174Z" fill="#FFB0A0"/>
<path d="M21.5598 53.2748C21.5598 53.2748 3.35117 84.1178 1.40892 90.8668C-0.533337 97.6157 26.5773 121.527 26.5773 121.527L33.3266 114.044L14.9885 93.1232L24.9223 80.5181C24.9223 80.5181 23.4454 66.6874 21.5598 53.2748Z" fill="#D74F58"/>
<path d="M16.8668 90.7654L24.9595 80.5182C24.9595 80.5182 23.4745 66.6876 21.5889 53.2749C21.5889 53.2749 7.54395 77.0849 2.80566 87.4417C7.7139 86.3622 13.043 87.1941 16.8668 90.7654Z" fill="#2D5FA1"/>
<path d="M14.9962 93.1232C12.6311 91.1663 9.62172 90.1674 6.55957 90.323C10.4117 89.4505 12.6898 89.2354 14.9962 93.1232Z" fill="#2D5FA1"/>
<path d="M24.0845 122.688C24.0845 122.688 37.8016 119.097 42.0746 115.996C43.2602 118.772 43.422 119.839 43.422 119.839C43.422 119.839 32.1125 125.379 24.5539 125.379C24.303 124.401 24.0845 122.688 24.0845 122.688Z" fill="#F0F6F7"/>
<path d="M18.6596 90.7571L24.3973 84.2354C24.3973 84.2354 26.7119 62.694 21.5649 53.2747C21.5649 53.2747 9.56744 71.0053 3.31177 82.0601C9.12639 82.5918 12.5334 84.901 16.952 88.6346L18.6596 90.7571Z" fill="white"/>
<path d="M21.5425 54.0095C21.5425 54.0095 25.4877 63.8306 24.3952 84.2357C25.4068 79.4956 26.7906 60.3202 21.5425 54.0095Z" fill="#F0F6F7"/>
<path d="M67.9181 114.174C67.9181 114.174 67.4042 115.48 64.9764 116.609C62.5486 117.737 61.2821 118.346 60.0601 120.216C64.5353 121.434 70.8719 123.601 70.8719 123.601C71.8507 122.465 72.689 121.214 73.3685 119.875C74.1819 118.09 67.9181 114.174 67.9181 114.174Z" fill="#FFB0A0"/>
<path d="M78.4382 53.2747C78.4382 53.2747 96.6468 84.1177 98.5891 90.8666C100.531 97.6156 73.4086 121.527 73.4086 121.527L66.6633 114.044L85.0014 93.1231L75.0676 80.518C75.0676 80.518 74.0439 60.6973 78.4382 53.2747Z" fill="#D74F58"/>
<path d="M96.3819 85.6642C91.0205 74.5972 78.4403 53.2749 78.4403 53.2749C74.046 60.6975 75.0697 80.5182 75.0697 80.5182L83.9717 91.8044C87.4718 88.4684 91.5344 85.0635 96.3819 85.6642Z" fill="#2D5FA1"/>
<path d="M85.002 93.1228C85.002 93.1228 88.4616 89.5069 92.5282 89.5597C89.979 88.6344 86.3696 89.3973 85.002 93.1228Z" fill="#2D5FA1"/>
<path d="M75.9157 122.688C75.9157 122.688 62.1864 119.096 57.9215 115.988C56.74 118.764 56.5781 119.831 56.5781 119.831C56.5781 119.831 67.8837 125.371 75.4503 125.371C75.6972 124.401 75.9157 122.688 75.9157 122.688Z" fill="#F0F6F7"/>
<path d="M81.3416 90.7573L75.6039 84.2356C75.6039 84.2356 72.7714 60.9735 78.4363 53.2749C78.4363 53.2749 90.4338 71.0056 96.6894 82.0604C90.8708 82.592 87.4678 84.9012 83.0451 88.6348L81.3416 90.7573Z" fill="white"/>
<path d="M78.4579 54.0095C78.4579 54.0095 74.5086 63.8306 75.6254 84.2357C74.5896 79.4956 73.2057 60.3202 78.4579 54.0095Z" fill="#F0F6F7"/>
<path d="M51.0091 79.9867C51.0099 80.2872 50.9217 80.5812 50.7557 80.8314C50.5898 81.0816 50.3535 81.2768 50.0768 81.3922C49.8001 81.5076 49.4955 81.538 49.2015 81.4795C48.9076 81.4211 48.6376 81.2765 48.4257 81.064C48.2138 80.8514 48.0696 80.5806 48.0113 80.2858C47.953 79.991 47.9834 79.6855 48.0984 79.408C48.2134 79.1305 48.408 78.8935 48.6575 78.727C48.907 78.5605 49.2001 78.4721 49.4998 78.4729C49.9001 78.4729 50.284 78.6324 50.567 78.9163C50.8501 79.2002 51.0091 79.5852 51.0091 79.9867Z" fill="#2D5FA1"/>
<path d="M51.0091 94.7181C51.0099 95.0186 50.9217 95.3127 50.7557 95.5629C50.5898 95.8131 50.3535 96.0083 50.0768 96.1236C49.8001 96.239 49.4955 96.2694 49.2015 96.211C48.9076 96.1526 48.6376 96.0079 48.4257 95.7954C48.2138 95.5829 48.0696 95.3121 48.0113 95.0173C47.953 94.7225 47.9834 94.4169 48.0984 94.1394C48.2134 93.8619 48.408 93.6249 48.6575 93.4585C48.907 93.292 49.2001 93.2035 49.4998 93.2044C49.698 93.2044 49.8943 93.2435 50.0774 93.3196C50.2605 93.3957 50.4269 93.5072 50.567 93.6477C50.7072 93.7883 50.8184 93.9552 50.8942 94.1388C50.9701 94.3225 51.0091 94.5193 51.0091 94.7181Z" fill="#2D5FA1"/>
<path d="M51.0091 111.524C51.0099 111.824 50.9217 112.118 50.7557 112.368C50.5898 112.619 50.3535 112.814 50.0768 112.929C49.8001 113.044 49.4955 113.075 49.2015 113.016C48.9076 112.958 48.6376 112.813 48.4257 112.601C48.2138 112.388 48.0696 112.117 48.0113 111.823C47.953 111.528 47.9834 111.222 48.0984 110.945C48.2134 110.667 48.408 110.43 48.6575 110.264C48.907 110.097 49.2001 110.009 49.4998 110.01C49.8998 110.011 50.283 110.171 50.5659 110.454C50.8487 110.738 51.008 111.122 51.0091 111.524Z" fill="#2D5FA1"/>
<path d="M51.0091 127.603C51.0099 127.903 50.9217 128.197 50.7557 128.447C50.5898 128.698 50.3535 128.893 50.0768 129.008C49.8001 129.124 49.4955 129.154 49.2015 129.096C48.9076 129.037 48.6376 128.892 48.4257 128.68C48.2138 128.467 48.0696 128.197 48.0113 127.902C47.953 127.607 47.9834 127.301 48.0984 127.024C48.2134 126.746 48.408 126.509 48.6575 126.343C48.907 126.177 49.2001 126.088 49.4998 126.089C49.9001 126.089 50.284 126.248 50.567 126.532C50.8501 126.816 51.0091 127.201 51.0091 127.603Z" fill="#2D5FA1"/>
<path d="M51.0091 145.471C51.0099 145.772 50.9217 146.066 50.7557 146.316C50.5898 146.566 50.3535 146.761 50.0768 146.877C49.8001 146.992 49.4955 147.023 49.2015 146.964C48.9076 146.906 48.6376 146.761 48.4257 146.549C48.2138 146.336 48.0696 146.065 48.0113 145.77C47.953 145.476 47.9834 145.17 48.0984 144.893C48.2134 144.615 48.408 144.378 48.6575 144.212C48.907 144.045 49.2001 143.957 49.4998 143.958C49.9001 143.958 50.284 144.117 50.567 144.401C50.8501 144.685 51.0091 145.07 51.0091 145.471Z" fill="#2D5FA1"/>
<path d="M38.2463 45.1759C37.3696 48.5543 38.1271 51.6967 39.2359 54.4511C39.2751 54.3743 39.3292 54.3061 39.3951 54.2506C39.461 54.195 39.5373 54.1533 39.6195 54.1278C38.5751 51.4866 37.8821 48.4929 38.7105 45.302C39.2566 42.9972 40.4807 40.91 42.224 39.3115L42.282 38.5388C40.9733 39.5927 39.1682 41.6262 38.2463 45.1759Z" fill="#2D5FA1"/>
<path d="M43.1182 71.641C43.0574 71.6473 42.9965 71.6301 42.948 71.5927C42.8996 71.5554 42.8672 71.5008 42.8577 71.4402C42.8482 71.3797 42.8622 71.3178 42.8969 71.2673C42.9316 71.2168 42.9842 71.1816 43.044 71.169C43.8273 71.0332 44.4752 70.7584 44.5075 70.6129C44.5075 70.1571 43.4728 60.4099 43.0698 58.2471C42.7475 56.5692 42.0061 54.5293 40.2075 54.345C39.8919 54.3091 39.5723 54.3397 39.2692 54.4349C38.9661 54.5301 38.6863 54.6878 38.4475 54.8978C37.7158 55.525 37.2774 56.5951 37.2097 57.9109C37.0743 60.5909 37.9285 70.5935 38.2573 71.1883C38.4636 71.4276 39.35 71.5116 39.9109 71.4793C39.944 71.4742 39.9777 71.4761 40.01 71.4849C40.0423 71.4937 40.0724 71.5092 40.0983 71.5304C40.1242 71.5516 40.1454 71.5781 40.1605 71.6081C40.1755 71.638 40.1841 71.6708 40.1857 71.7043C40.1873 71.7379 40.1818 71.7713 40.1697 71.8026C40.1575 71.8339 40.139 71.8622 40.1152 71.8858C40.0914 71.9094 40.0629 71.9277 40.0316 71.9396C40.0003 71.9514 39.9669 71.9565 39.9335 71.9546C39.6692 71.9546 38.3218 72.0063 37.8834 71.4858C37.3773 70.8942 36.6231 60.0801 36.7327 57.8882C36.8068 56.4399 37.3064 55.247 38.1381 54.5325C38.4265 54.2846 38.763 54.0992 39.1263 53.9879C39.4897 53.8767 39.872 53.8419 40.2494 53.8859C41.9062 54.054 43.0408 55.5379 43.534 58.176C43.9369 60.3517 44.9813 70.1732 44.9781 70.6388C44.9781 71.2853 43.6887 71.5601 43.1182 71.6571V71.641Z" fill="#2D5FA1"/>
<path d="M39.2193 71.5891C39.2193 71.5891 39.2193 71.3693 39.4095 71.366C39.5996 71.3628 40.0992 71.3305 40.2282 71.4404C40.3571 71.5503 40.3152 72.0223 40.2282 72.087C40.1412 72.1516 39.5609 72.087 39.3869 72.1031C39.2128 72.1193 39.1935 71.7831 39.2193 71.5891Z" fill="#66657A"/>
<path d="M43.767 71.0618C43.7603 71.0388 43.7492 71.0173 43.7342 70.9987C43.7193 70.98 43.7007 70.9645 43.6797 70.9531C43.6588 70.9417 43.6357 70.9345 43.612 70.9321C43.5882 70.9297 43.5642 70.932 43.5414 70.9389C43.3673 70.9874 42.8516 71.0715 42.7581 71.2137C42.6646 71.356 42.8419 71.7698 42.9418 71.8215C43.2197 71.7918 43.492 71.7232 43.7509 71.6178C43.9185 71.5693 43.8476 71.2396 43.767 71.0618Z" fill="#66657A"/>
<path d="M40.2703 53.75C39.8745 53.7055 39.4738 53.744 39.0937 53.8631C38.7136 53.9822 38.3623 54.1793 38.0622 54.4418C37.2048 55.1789 36.6923 56.401 36.6182 57.8816C36.6182 58.0336 36.6182 58.2502 36.6182 58.5088L37.3273 58.4474C37.3273 58.2502 37.3273 58.0692 37.3273 57.9172C37.3918 56.624 37.8173 55.5928 38.5232 54.9882C38.7498 54.7891 39.0154 54.6397 39.3029 54.5495C39.5904 54.4593 39.8936 54.4303 40.1929 54.4645C41.8207 54.6326 42.5589 56.4042 42.8941 57.9851L43.6097 57.9269C43.0907 55.3665 41.94 53.9213 40.2703 53.75Z" fill="#66657A"/>
<path d="M61.7368 50.4946C61.4847 42.0671 58.9995 39.4764 57.6807 38.7062L57.6379 39.1797C58.8631 40.0148 61.0724 42.6183 61.3026 50.5198C61.4446 54.1445 61.0512 57.7712 60.1352 61.2823L60.5468 61.3729C61.4774 57.8248 61.8784 54.1588 61.7368 50.4946Z" fill="#07003D"/>
<path d="M61.6899 63.2124C62.7517 62.5318 63.0635 61.1181 62.3864 60.0548C61.7094 58.9915 60.2997 58.6813 59.238 59.3619C58.1762 60.0425 57.8643 61.4562 58.5414 62.5195C59.2185 63.5827 60.6281 63.893 61.6899 63.2124Z" fill="#66657A"/>
<path d="M61.7752 61.5752C61.718 61.8346 61.5854 62.0713 61.3941 62.2553C61.2028 62.4394 60.9615 62.5625 60.7006 62.6092C60.4397 62.6559 60.1711 62.624 59.9285 62.5176C59.686 62.4111 59.4805 62.2349 59.3381 62.0112C59.1957 61.7876 59.1227 61.5265 59.1283 61.2609C59.134 60.9954 59.2181 60.7374 59.3699 60.5195C59.5218 60.3017 59.7346 60.1337 59.9814 60.0369C60.2283 59.9402 60.4981 59.9189 60.7568 59.9758C61.1036 60.0521 61.4058 60.2635 61.5968 60.5635C61.7878 60.8634 61.852 61.2273 61.7752 61.5752Z" fill="#8C8C9B"/>
</svg>
